<?xml version="1.0" encoding="UTF-8"?>
<svg version="1.1" xmlns="http://www.w3.org/2000/svg" width="192" height="192">
<path d="M0 0 C63.36 0 126.72 0 192 0 C192 63.36 192 126.72 192 192 C128.64 192 65.28 192 0 192 C0 128.64 0 65.28 0 0 Z " fill="#2C2C2C" transform="translate(0,0)"/>
<path d="M0 0 C0.85142578 -0.02449219 1.70285156 -0.04898437 2.58007812 -0.07421875 C10.42108972 -0.11004972 17.89631072 2.28919461 23.83984375 7.63671875 C31.38968689 17.37492223 31.34576431 29.59883571 31.42578125 41.30078125 C31.433853 42.4429863 31.44192474 43.58519135 31.45024109 44.76200867 C31.46402835 47.17669178 31.47477428 49.59139394 31.48266602 52.00610352 C31.49412955 54.44073321 31.51449072 56.87533891 31.54418945 59.30981445 C32.01623283 98.09384801 32.01623283 98.09384801 22.8984375 109.7109375 C15.12960894 117.26692144 7.45559391 117.66365874 -2.88671875 117.52734375 C-9.77194189 117.26015599 -16.38781727 115.95049174 -21.8125 111.375 C-25.47974719 106.74138362 -28.95257285 102.26534467 -28.91015625 96.2421875 C-28.90765869 95.51628418 -28.90516113 94.79038086 -28.90258789 94.04248047 C-28.89348389 93.12096191 -28.88437988 92.19944336 -28.875 91.25 C-28.854375 88.32125 -28.83375 85.3925 -28.8125 82.375 C-21.5525 82.375 -14.2925 82.375 -6.8125 82.375 C-6.35677083 85.43489583 -5.90104167 88.49479167 -5.4453125 91.5546875 C-5.04993487 94.49432714 -5.04993487 94.49432714 -2.8125 96.375 C-0.35508463 96.87514953 -0.35508463 96.87514953 2.1875 96.375 C4.40710607 94.13460059 5.13776012 92.77648465 5.52807617 89.62597656 C5.51236572 88.59956055 5.49665527 87.57314453 5.48046875 86.515625 C5.47080078 85.40058594 5.46113281 84.28554687 5.45117188 83.13671875 C5.42603516 81.97785156 5.40089844 80.81898437 5.375 79.625 C5.36146484 78.45066406 5.34792969 77.27632813 5.33398438 76.06640625 C5.2986478 73.16880702 5.24930979 70.27213573 5.1875 67.375 C4.56875 68.014375 3.95 68.65375 3.3125 69.3125 C-0.98078534 73.47951224 -5.5099331 72.70722945 -11.25390625 72.6484375 C-17.70547958 72.15270739 -21.07178238 70.077035 -25.625 65.625 C-33.03366713 53.93632585 -32.0437209 35.06265099 -29.55859375 22.19140625 C-27.32727549 13.76847189 -23.25784418 7.11417026 -15.8125 2.375 C-10.58168092 0.06910638 -5.61809201 0.00839147 0 0 Z " fill="#FAFAFA" transform="translate(60.8125,22.625)"/>
<path d="M0 0 C18.15 0 36.3 0 55 0 C55 7.26 55 14.52 55 22 C44.11 22 33.22 22 22 22 C22.33 26.95 22.66 31.9 23 37 C24.32 36.01 25.64 35.02 27 34 C34.01125842 31.66291386 40.41455338 33.08575064 47 36 C53.45261011 39.87156606 56.0960234 46.96993256 58 54 C60.47564687 70.48637302 61.34739852 92.09599433 53 107 C48.33439526 112.64783731 42.35428918 116.92667131 35 118 C25.21777125 118.73852588 16.53667064 117.71610258 7.6875 113.375 C2.29412375 108.60876053 -2.60504454 101.66004979 -3.22705078 94.32104492 C-3.21657715 93.38365479 -3.20610352 92.44626465 -3.1953125 91.48046875 C-3.19031738 90.55903076 -3.18532227 89.63759277 -3.18017578 88.68823242 C-3.16196777 87.53299072 -3.14375977 86.37774902 -3.125 85.1875 C-3.08375 81.495625 -3.0425 77.80375 -3 74 C5.25 74 13.5 74 22 74 C22.375 82.8125 22.375 82.8125 22.47802734 85.57739258 C22.5136377 86.30079834 22.54924805 87.0242041 22.5859375 87.76953125 C22.63306885 88.87711792 22.63306885 88.87711792 22.68115234 90.00708008 C22.90834614 92.31349588 22.90834614 92.31349588 25 95 C28 95.5 28 95.5 31 95 C33.4704048 91.29439279 33.28905784 88.44341045 33.265625 84.15625 C33.26753845 83.39074829 33.2694519 82.62524658 33.27142334 81.83654785 C33.27278333 80.21931631 33.26909986 78.60207379 33.26074219 76.98486328 C33.25003973 74.5091907 33.26064344 72.03424376 33.2734375 69.55859375 C33.27211587 67.98697756 33.26955341 66.41536183 33.265625 64.84375 C33.26967346 64.10306274 33.27372192 63.36237549 33.27789307 62.59924316 C33.24372814 58.85550932 33.13023445 57.19535167 31 54 C27.45812169 53.66661404 27.45812169 53.66661404 24 54 C22.2 55.6 22.2 55.6 22 62 C14.74 62 7.48 62 0 62 C0 41.54 0 21.08 0 0 Z " fill="#F9F9F9" transform="translate(100,23)"/>
<path d="M0 0 C3.0625 0.375 3.0625 0.375 4.73120117 2.08203125 C6.29194547 4.77018648 6.43630446 6.34765739 6.42578125 9.4375 C6.42513672 10.39914063 6.42449219 11.36078125 6.42382812 12.3515625 C6.40771484 13.34929688 6.39160156 14.34703125 6.375 15.375 C6.37822266 16.37273438 6.38144531 17.37046875 6.38476562 18.3984375 C6.32137588 26.9963921 6.32137588 26.9963921 4.0625 30.375 C1.125 31.3125 1.125 31.3125 -1.9375 31.375 C-3.60620117 30.24829102 -3.60620117 30.24829102 -4.9375 28.375 C-5.30981445 25.67944336 -5.30981445 25.67944336 -5.30078125 22.46484375 C-5.30013672 21.31048828 -5.29949219 20.15613281 -5.29882812 18.96679688 C-5.28271484 17.76087891 -5.26660156 16.55496094 -5.25 15.3125 C-5.25322266 14.10271484 -5.25644531 12.89292969 -5.25976562 11.64648438 C-5.19223063 0.66283795 -5.19223063 0.66283795 0 0 Z " fill="#313131" transform="translate(60.9375,43.625)"/>
<path d="M0 0 C6.33333333 0 12.66666667 0 19 0 C19.33 1.98 19.66 3.96 20 6 C20.33 4.02 20.66 2.04 21 0 C21.99 0 22.98 0 24 0 C23.57045059 6.25107435 22.98598493 12.04204521 21 18 C19.02 18 17.04 18 15 18 C15 17.01 15 16.02 15 15 C13.68 15 12.36 15 11 15 C11 11.04 11 7.08 11 3 C10.34 3 9.68 3 9 3 C9 6.96 9 10.92 9 15 C6.03 15 3.06 15 0 15 C0 10.05 0 5.1 0 0 Z " fill="#DDDDDD" transform="translate(148,153)"/>
<path d="M0 0 C1.32 0 2.64 0 4 0 C4.33 1.32 4.66 2.64 5 4 C5.33 3.67 5.66 3.34 6 3 C8.9375 2.8125 8.9375 2.8125 12 3 C14 5 14 5 14.125 8.125 C14.08375 9.07375 14.0425 10.0225 14 11 C12.02 11 10.04 11 8 11 C8 12.32 8 13.64 8 15 C8.66 15 9.32 15 10 15 C10 14.01 10 13.02 10 12 C11.32 12 12.64 12 14 12 C13.125 16.875 13.125 16.875 12 18 C10.00045254 18.04254356 7.99958364 18.04080783 6 18 C4.62364803 18 3.24725809 18.0124306 1.87109375 18.03515625 C1.06800781 18.04417969 0.26492187 18.05320313 -0.5625 18.0625 C-1.36816406 18.07410156 -2.17382812 18.08570313 -3.00390625 18.09765625 C-5 18 -5 18 -6 17 C-6.0989294 14.83519203 -6.129711 12.66706215 -6.125 10.5 C-6.12757812 9.3140625 -6.13015625 8.128125 -6.1328125 6.90625 C-6 4 -6 4 -5 3 C-3.33382885 2.95936168 -1.66611905 2.957279 0 3 C0 2.01 0 1.02 0 0 Z " fill="#BCBCBC" transform="translate(133,150)"/>
<path d="M0 0 C1.65 0 3.3 0 5 0 C5 0.99 5 1.98 5 3 C6.299375 3.144375 7.59875 3.28875 8.9375 3.4375 C12.875 3.875 12.875 3.875 14 5 C14.14426614 9.66845228 14.04208415 14.32865953 14 19 C9.38 19 4.76 19 0 19 C0 12.73 0 6.46 0 0 Z " fill="#E0E0E0" transform="translate(66,149)"/>
<path d="M0 0 C2.31 0 4.62 0 7 0 C7.33 5.94 7.66 11.88 8 18 C6.68 18 5.36 18 4 18 C4 17.34 4 16.68 4 16 C3.34 16 2.68 16 2 16 C2 16.66 2 17.32 2 18 C1.01 18 0.02 18 -1 18 C-1.02717692 15.93757383 -1.0464758 13.87504297 -1.0625 11.8125 C-1.07410156 10.66394531 -1.08570312 9.51539063 -1.09765625 8.33203125 C-1.01192832 5.40699414 -0.67849023 2.83683709 0 0 Z " fill="#DDDDDD" transform="translate(98,150)"/>
<path d="M0 0 C2.97 0 5.94 0 9 0 C9.05383848 2.45862401 9.09359038 4.9160755 9.125 7.375 C9.14175781 8.07367188 9.15851563 8.77234375 9.17578125 9.4921875 C9.19344267 11.32897486 9.10303261 13.16601963 9 15 C7 17 7 17 3.375 17.125 C2.26125 17.08375 1.1475 17.0425 0 17 C0 16.34 0 15.68 0 15 C1.32 14.67 2.64 14.34 4 14 C2.68 13.67 1.36 13.34 0 13 C0 8.71 0 4.42 0 0 Z " fill="#D5D5D5" transform="translate(82,153)"/>
<path d="M0 0 C1.32 0 2.64 0 4 0 C4.33 1.98 4.66 3.96 5 6 C5.33 4.02 5.66 2.04 6 0 C6.99 0 7.98 0 9 0 C8.57045059 6.25107435 7.98598493 12.04204521 6 18 C4.02 18 2.04 18 0 18 C-1.12589491 14.62231526 -1.13294275 11.99187928 -1.125 8.4375 C-1.12757813 7.28121094 -1.13015625 6.12492188 -1.1328125 4.93359375 C-1 2 -1 2 0 0 Z " fill="#A6A6A6" transform="translate(163,153)"/>
<path d="M0 0 C3.0625 0.1875 3.0625 0.1875 5.0625 2.1875 C5.1875 5.3125 5.1875 5.3125 5.0625 8.1875 C3.0825 8.1875 1.1025 8.1875 -0.9375 8.1875 C-0.9375 9.5075 -0.9375 10.8275 -0.9375 12.1875 C-0.2775 12.1875 0.3825 12.1875 1.0625 12.1875 C1.0625 11.1975 1.0625 10.2075 1.0625 9.1875 C2.3825 9.1875 3.7025 9.1875 5.0625 9.1875 C4.1875 14.0625 4.1875 14.0625 3.0625 15.1875 C0.0625 15.3125 0.0625 15.3125 -2.9375 15.1875 C-3.9375 14.1875 -3.9375 14.1875 -4.0703125 11.28125 C-4.06773437 10.0953125 -4.06515625 8.909375 -4.0625 7.6875 C-4.06507813 6.5015625 -4.06765625 5.315625 -4.0703125 4.09375 C-3.89459287 0.24859103 -3.89459287 0.24859103 0 0 Z " fill="#DDDDDD" transform="translate(141.9375,152.8125)"/>
<path d="M0 0 C2.375 -0.125 2.375 -0.125 5 0 C7 2 7 2 7.1953125 5.0390625 C7.17210938 6.22242188 7.14890625 7.40578125 7.125 8.625 C7.10695313 9.81351563 7.08890625 11.00203125 7.0703125 12.2265625 C7.04710938 13.14179688 7.02390625 14.05703125 7 15 C0.84765625 15.09765625 0.84765625 15.09765625 -1 15 C-2 14 -2 14 -2.1875 11.0625 C-2 8 -2 8 0 6 C0.99 6 1.98 6 3 6 C2.67 5.34 2.34 4.68 2 4 C1.01 4 0.02 4 -1 4 C-0.67 2.68 -0.34 1.36 0 0 Z " fill="#F6F6F6" transform="translate(119,153)"/>
<path d="M0 0 C2.375 -0.125 2.375 -0.125 5 0 C7 2 7 2 7.1953125 5.0390625 C7.17210937 6.22242188 7.14890625 7.40578125 7.125 8.625 C7.10695313 9.81351563 7.08890625 11.00203125 7.0703125 12.2265625 C7.04710937 13.14179688 7.02390625 14.05703125 7 15 C0.84765625 15.09765625 0.84765625 15.09765625 -1 15 C-2 14 -2 14 -2.1875 11.0625 C-2 8 -2 8 0 6 C0.99 6 1.98 6 3 6 C2.67 5.34 2.34 4.68 2 4 C1.01 4 0.02 4 -1 4 C-0.67 2.68 -0.34 1.36 0 0 Z " fill="#F1F1F1" transform="translate(37,153)"/>
<path d="M0 0 C0.99 0 1.98 0 3 0 C3.33 1.65 3.66 3.3 4 5 C4.33 4.34 4.66 3.68 5 3 C5.99 3 6.98 3 8 3 C7.98839844 3.58007812 7.97679687 4.16015625 7.96484375 4.7578125 C7.91237826 9.2998246 8.08248937 13.52713569 9 18 C7.68 18 6.36 18 5 18 C4.67 16.68 4.34 15.36 4 14 C3.67 15.32 3.34 16.64 3 18 C2.01 18 1.02 18 0 18 C0 12.06 0 6.12 0 0 Z " fill="#F4F4F4" transform="translate(56,150)"/>
<path d="M0 0 C2.5 0.25 2.5 0.25 4.5 2.25 C4.5 3.57 4.5 4.89 4.5 6.25 C3.18 6.25 1.86 6.25 0.5 6.25 C0.5 7.24 0.5 8.23 0.5 9.25 C1.82 9.25 3.14 9.25 4.5 9.25 C4.5 10.9 4.5 12.55 4.5 14.25 C1.125 14.875 1.125 14.875 -2.5 15.25 C-4.5 13.25 -4.5 13.25 -4.765625 10.71875 C-4.76046875 9.7390625 -4.7553125 8.759375 -4.75 7.75 C-4.75515625 6.7703125 -4.7603125 5.790625 -4.765625 4.78125 C-4.39762983 1.27447248 -3.51646525 0.35164653 0 0 Z " fill="#F2F2F2" transform="translate(111.5,152.75)"/>
<path d="M0 0 C3.0625 -0.25 3.0625 -0.25 6 0 C7 1 7 1 7.0625 3.5625 C7.041875 4.366875 7.02125 5.17125 7 6 C6.01 6 5.02 6 4 6 C4 5.01 4 4.02 4 3 C3.34 3 2.68 3 2 3 C2 5.97 2 8.94 2 12 C2.66 12 3.32 12 4 12 C4 11.01 4 10.02 4 9 C4.99 9 5.98 9 7 9 C7.042721 10.66611905 7.04063832 12.33382885 7 14 C6 15 6 15 3.0625 15.25 C2.051875 15.1675 1.04125 15.085 0 15 C-2.08133467 11.877998 -2.2737822 11.06733011 -2.25 7.5 C-2.25773437 6.33984375 -2.25773437 6.33984375 -2.265625 5.15625 C-2 3 -2 3 0 0 Z " fill="#ECECEC" transform="translate(47,153)"/>
<path d="M0 0 C2.64 0 5.28 0 8 0 C8 1.32 8 2.64 8 4 C7.34 4 6.68 4 6 4 C6 8.62 6 13.24 6 18 C5.01 18 4.02 18 3 18 C3 13.38 3 8.76 3 4 C2.01 4 1.02 4 0 4 C0 2.68 0 1.36 0 0 Z " fill="#EDEDED" transform="translate(19,150)"/>
<path d="M0 0 C1.98 0 3.96 0 6 0 C6 0.99 6 1.98 6 3 C5.34 3 4.68 3 4 3 C4 6.96 4 10.92 4 15 C2.68 15 1.36 15 0 15 C0 10.05 0 5.1 0 0 Z " fill="#E3E3E3" transform="translate(28,153)"/>
<path d="M0 0 C0.99 0 1.98 0 3 0 C4.44207941 2.88415883 4.09394887 5.41721528 4.0625 8.625 C4.05347656 9.81351563 4.04445313 11.00203125 4.03515625 12.2265625 C4.02355469 13.14179688 4.01195313 14.05703125 4 15 C2.68 15 1.36 15 0 15 C0 10.05 0 5.1 0 0 Z " fill="#EBEBEB" transform="translate(71,153)"/>
<path d="M0 0 C0.33 0 0.66 0 1 0 C1 5.94 1 11.88 1 18 C0.34 17.34 -0.32 16.68 -1 16 C-1 14.68 -1 13.36 -1 12 C-1.99 12 -2.98 12 -4 12 C-4 12.99 -4 13.98 -4 15 C-4.66 15 -5.32 15 -6 15 C-6 12.03 -6 9.06 -6 6 C-5.34 6 -4.68 6 -4 6 C-4 6.99 -4 7.98 -4 9 C-3.01 9 -2.02 9 -1 9 C-0.67 6.03 -0.34 3.06 0 0 Z " fill="#7A7A7A" transform="translate(55,150)"/>
<path d="M0 0 C0.99 0 1.98 0 3 0 C2.03644647 11.52164009 2.03644647 11.52164009 1 17 C-0.98 17 -2.96 17 -5 17 C-4.34 16.67 -3.68 16.34 -3 16 C-3 14.35 -3 12.7 -3 11 C-2.34 10.67 -1.68 10.34 -1 10 C-0.53248212 7.64400765 -0.53248212 7.64400765 -0.375 4.9375 C-0.26285156 3.55884766 -0.26285156 3.55884766 -0.1484375 2.15234375 C-0.09945312 1.44207031 -0.05046875 0.73179687 0 0 Z " fill="#F3F3F3" transform="translate(169,153)"/>
<path d="M0 0 C2.31 0 4.62 0 7 0 C6.01 1.485 6.01 1.485 5 3 C4.34 3 3.68 3 3 3 C3.185625 4.918125 3.185625 4.918125 3.375 6.875 C3.44460937 7.59429687 3.51421875 8.31359375 3.5859375 9.0546875 C3.86374749 11.22668245 3.86374749 11.22668245 6 13 C4.02 13 2.04 13 0 13 C0 8.71 0 4.42 0 0 Z " fill="#F1F1F1" transform="translate(82,153)"/>
<path d="M0 0 C2.5 0.25 2.5 0.25 4.5 2.25 C4.5 3.57 4.5 4.89 4.5 6.25 C3.18 6.25 1.86 6.25 0.5 6.25 C0.17 8.23 -0.16 10.21 -0.5 12.25 C-0.83 12.25 -1.16 12.25 -1.5 12.25 C-1.83 9.28 -2.16 6.31 -2.5 3.25 C-2.83 6.55 -3.16 9.85 -3.5 13.25 C-3.83 13.25 -4.16 13.25 -4.5 13.25 C-4.55391993 11.45866022 -4.59275571 9.66686101 -4.625 7.875 C-4.64820312 6.87726563 -4.67140625 5.87953125 -4.6953125 4.8515625 C-4.42769442 1.28688961 -3.56659343 0.35665934 0 0 Z " fill="#DFDFDF" transform="translate(111.5,152.75)"/>
<path d="M0 0 C0.66 0 1.32 0 2 0 C2 0.66 2 1.32 2 2 C3.32 1.67 4.64 1.34 6 1 C6 1.99 6 2.98 6 4 C5.38125 4.2475 4.7625 4.495 4.125 4.75 C1.64931313 6.20628639 1.04874998 7.37812506 0 10 C0 9.01 0 8.02 0 7 C-1.32 7 -2.64 7 -4 7 C-4.33 7.99 -4.66 8.98 -5 10 C-5 7.03 -5 4.06 -5 1 C-4.67 1.99 -4.34 2.98 -4 4 C-2.68 4 -1.36 4 0 4 C0 2.68 0 1.36 0 0 Z " fill="#494949" transform="translate(116,155)"/>
<path d="M0 0 C2.475 0.495 2.475 0.495 5 1 C5 5.95 5 10.9 5 16 C6.32 16.33 7.64 16.66 9 17 C6.36 17 3.72 17 1 17 C1.99 16.67 2.98 16.34 4 16 C3.649375 15.195625 3.29875 14.39125 2.9375 13.5625 C1.76224708 9.09653892 2.25973287 5.50162445 3 1 C2.01 0.67 1.02 0.34 0 0 Z " fill="#4A4A4A" transform="translate(61,152)"/>
<path d="M0 0 C0.99 0 1.98 0 3 0 C3 4.95 3 9.9 3 15 C2.01 15 1.02 15 0 15 C0 10.05 0 5.1 0 0 Z " fill="#F2F2F2" transform="translate(148,153)"/>
<path d="M0 0 C0.99 0.33 1.98 0.66 3 1 C3 5.62 3 10.24 3 15 C2.01 15 1.02 15 0 15 C-0.19390729 12.68802845 -0.37996367 10.3753971 -0.5625 8.0625 C-0.71912109 6.13083984 -0.71912109 6.13083984 -0.87890625 4.16015625 C-0.91886719 3.11730469 -0.95882812 2.07445312 -1 1 C-0.67 0.67 -0.34 0.34 0 0 Z " fill="#FEFEFE" transform="translate(159,153)"/>
<path d="M0 0 C0.99 0 1.98 0 3 0 C3 4.95 3 9.9 3 15 C2.01 15 1.02 15 0 15 C0 10.05 0 5.1 0 0 Z " fill="#FBFBFB" transform="translate(66,153)"/>
<path d="M0 0 C0.66 0.33 1.32 0.66 2 1 C2 5.29 2 9.58 2 14 C0.68 14 -0.64 14 -2 14 C-2.05389087 12.04196493 -2.09274217 10.08351091 -2.125 8.125 C-2.14820312 7.03445312 -2.17140625 5.94390625 -2.1953125 4.8203125 C-2 2 -2 2 0 0 Z " fill="#F5F5F5" transform="translate(130,154)"/>
<path d="M0 0 C0.66 0 1.32 0 2 0 C2 3.96 2 7.92 2 12 C3.65 12 5.3 12 7 12 C6.67 12.66 6.34 13.32 6 14 C4.68 14 3.36 14 2 14 C1.67 14.66 1.34 15.32 1 16 C-0.50156874 12.99686252 -0.09281204 10.20932478 -0.0625 6.875 C-0.05347656 5.59367188 -0.04445313 4.31234375 -0.03515625 2.9921875 C-0.02355469 2.00476563 -0.01195313 1.01734375 0 0 Z " fill="#606060" transform="translate(80,154)"/>
<path d="M0 0 C1.65 0 3.3 0 5 0 C5 0.99 5 1.98 5 3 C6.32 3.33 7.64 3.66 9 4 C7.35 4 5.7 4 4 4 C4 8.95 4 13.9 4 19 C3.67 19 3.34 19 3 19 C3 14.05 3 9.1 3 4 C2.01 4 1.02 4 0 4 C0 2.68 0 1.36 0 0 Z " fill="#9D9D9D" transform="translate(66,149)"/>
<path d="M0 0 C0.66 0.33 1.32 0.66 2 1 C2 1.99 2 2.98 2 4 C3.32 3.67 4.64 3.34 6 3 C6 3.99 6 4.98 6 6 C5.360625 6.226875 4.72125 6.45375 4.0625 6.6875 C1.72806339 7.85250896 1.72806339 7.85250896 1.25 10.625 C1.1675 11.40875 1.085 12.1925 1 13 C-0.9078584 9.8250906 -1.1609041 7.89414789 -0.625 4.25 C-0.51414063 3.45078125 -0.40328125 2.6515625 -0.2890625 1.828125 C-0.19367187 1.22484375 -0.09828125 0.6215625 0 0 Z " fill="#4F4F4F" transform="translate(34,153)"/>
<path d="M0 0 C2.125 0.375 2.125 0.375 4 1 C4 2.98 4 4.96 4 7 C3.01 6.67 2.02 6.34 1 6 C0.67 5.01 0.34 4.02 0 3 C-0.33 4.65 -0.66 6.3 -1 8 C-1.33 8 -1.66 8 -2 8 C-2.125 5.125 -2.125 5.125 -2 2 C-1.34 1.34 -0.68 0.68 0 0 Z " fill="#BEBEBE" transform="translate(119,159)"/>
<path d="M0 0 C2.125 0.375 2.125 0.375 4 1 C4 2.98 4 4.96 4 7 C3.01 6.67 2.02 6.34 1 6 C0.67 5.01 0.34 4.02 0 3 C-0.33 4.65 -0.66 6.3 -1 8 C-1.33 8 -1.66 8 -2 8 C-2.125 5.125 -2.125 5.125 -2 2 C-1.34 1.34 -0.68 0.68 0 0 Z " fill="#B8B8B8" transform="translate(37,159)"/>
<path d="M0 0 C0.66 0 1.32 0 2 0 C2 0.99 2 1.98 2 3 C3.32 3 4.64 3 6 3 C6 3.66 6 4.32 6 5 C4.68 5 3.36 5 2 5 C2 6.32 2 7.64 2 9 C1.34 9 0.68 9 0 9 C0 6.03 0 3.06 0 0 Z " fill="#4A4A4A" transform="translate(49,156)"/>
<path d="M0 0 C1.98 0.495 1.98 0.495 4 1 C4 2.98 4 4.96 4 7 C3.01 7 2.02 7 1 7 C1 5.68 1 4.36 1 3 C0.34 3 -0.32 3 -1 3 C-0.67 2.01 -0.34 1.02 0 0 Z " fill="#F4F4F4" transform="translate(142,153)"/>
<path d="M0 0 C1.98 0.495 1.98 0.495 4 1 C4 2.65 4 4.3 4 6 C3.01 6 2.02 6 1 6 C1 5.01 1 4.02 1 3 C0.34 3 -0.32 3 -1 3 C-0.67 2.01 -0.34 1.02 0 0 Z " fill="#F2F2F2" transform="translate(50,153)"/>
<path d="M0 0 C1.4606285 2.64738916 2 3.89448334 2 7 C1.01 7 0.02 7 -1 7 C-1.04254356 5.00045254 -1.04080783 2.99958364 -1 1 C-0.67 0.67 -0.34 0.34 0 0 Z " fill="#FBFBFB" transform="translate(37,161)"/>
</svg>
