<?xml version="1.0" encoding="UTF-8"?>
<svg version="1.1" xmlns="http://www.w3.org/2000/svg" width="500" height="500">
<path d="M0 0 C165 0 330 0 500 0 C500 165 500 330 500 500 C335 500 170 500 0 500 C0 335 0 170 0 0 Z " fill="#FEFEFE" transform="translate(0,0)"/>
<path d="M0 0 C3.11204194 1.26839827 6.08382914 2.66943823 9.08911133 4.16479492 C13.28223291 6.23845232 17.39840088 7.90470073 21.875 9.3125 C29.08042143 11.62222508 36.13668718 14.25488489 43.1875 17 C44.28755371 17.41548096 45.38760742 17.83096191 46.52099609 18.2590332 C47.55949707 18.66855225 48.59799805 19.07807129 49.66796875 19.5 C50.59891357 19.8609375 51.5298584 20.221875 52.48901367 20.59375 C55.52486348 22.29394396 57.07040775 24.12389372 59 27 C60.21909275 33.86726347 56.94156982 39.86833691 54.3125 46.0625 C51.50366951 52.79953196 48.7696952 59.52954213 46.33276367 66.41186523 C45.89284592 67.65177719 45.45292816 68.89168915 44.99967957 70.16917419 C44.66978531 71.10334671 44.33989105 72.03751923 44 73 C45.59432688 72.99861731 45.59432688 72.99861731 47.22086239 72.99720669 C73.33349301 72.97480045 99.44612237 72.95847779 125.55876064 72.94818783 C138.18769616 72.94307679 150.81662525 72.93613586 163.44555664 72.92456055 C174.47956394 72.9144521 185.51356659 72.90810908 196.54757839 72.90591151 C202.36575942 72.90463118 208.18392714 72.90172256 214.00210381 72.89426994 C229.00184392 72.87606398 244.00053211 72.90678578 259 73 C260.13051489 73.00613642 261.26102979 73.01227284 262.42580271 73.01859522 C269.33170729 73.05782692 276.23674546 73.12053886 283.14212048 73.21514237 C285.31155251 73.24220236 287.48107733 73.26270853 289.6506356 73.27629077 C292.63923476 73.29673766 295.62644455 73.34210255 298.61463928 73.39405823 C299.93662148 73.39544357 299.93662148 73.39544357 301.28531039 73.3968569 C305.37771355 73.49421883 307.48956061 73.67712386 311.02408504 75.91287136 C317.69170683 82.95577791 314.80105115 98.70762793 315 108 C315.02251831 108.98071472 315.04503662 109.96142944 315.0682373 110.97186279 C315.21869262 117.65529381 315.32776933 124.33792179 315.39596558 131.02270508 C315.42363523 133.29759419 315.46164619 135.57238122 315.51004028 137.84692383 C315.57607048 141.08455653 315.60311276 144.32038325 315.62109375 147.55859375 C315.64887909 148.53775253 315.67666443 149.51691132 315.70529175 150.52574158 C315.68564721 157.08429926 315.68564721 157.08429926 313.70422363 159.73054504 C310.89145423 162.15726545 308.34367318 163.62015484 304.625 163.8125 C303.42875 163.874375 302.2325 163.93625 301 164 C301.16134933 164.55917114 301.32269867 165.11834229 301.48893738 165.69445801 C302.03481936 168.15707956 302.14778589 170.36739266 302.17700195 172.88867188 C302.18983719 173.85647583 302.20267242 174.82427979 302.21589661 175.82141113 C302.22697701 177.37934387 302.22697701 177.37934387 302.23828125 178.96875 C302.246353 180.04120972 302.25442474 181.11366943 302.26274109 182.21862793 C302.27655976 184.48476554 302.2872918 186.75092378 302.29516602 189.01708984 C302.31243555 192.48705025 302.35634878 195.95607159 302.40039062 199.42578125 C302.41051302 201.62759717 302.41903054 203.82942117 302.42578125 206.03125 C302.44328934 207.06987183 302.46079742 208.10849365 302.47883606 209.17858887 C302.45718142 216.3421363 302.45718142 216.3421363 300.1862793 219.60986328 C293.21999712 224.03934521 284.4567992 223.41515035 276.5 223.625 C275.29601562 223.66367187 274.09203125 223.70234375 272.8515625 223.7421875 C269.90118881 223.83585016 266.95081144 223.92157524 264 224 C264.144375 225.10085938 264.28875 226.20171875 264.4375 227.3359375 C265.90636014 239.92169472 266.27245949 252.47917502 266.35449219 265.13946533 C266.36813533 267.04248103 266.38861453 268.94546031 266.41601562 270.84832764 C266.45201235 273.56590311 266.46033665 276.28221235 266.4609375 279 C266.4823732 280.22706161 266.4823732 280.22706161 266.50424194 281.47891235 C266.46292914 286.71782834 265.79189389 290.06799859 262 294 C255.51108741 296.15486174 249.394441 296.28983388 242.60031128 296.27415466 C241.47064882 296.27939134 240.34098637 296.28462802 239.17709172 296.29002339 C235.40171646 296.30499399 231.62647709 296.30572789 227.85107422 296.30639648 C225.14044553 296.31294199 222.42982849 296.32239888 219.71920776 296.33161926 C212.36414183 296.35440932 205.00910485 296.36238237 197.65400839 296.36744571 C193.06012768 296.37070762 188.4662553 296.3772328 183.8723793 296.3844471 C171.14693155 296.40399981 158.4214915 296.42041359 145.69602776 296.42332363 C144.88275739 296.4235112 144.06948702 296.42369877 143.2315721 296.42389202 C141.58300916 296.42425827 139.93444623 296.42462196 138.28588329 296.42498314 C137.46757208 296.42516595 136.64926087 296.42534876 135.80615234 296.42553711 C134.98684054 296.42571766 134.16752874 296.42589821 133.32338931 296.42608423 C120.03270033 296.42962975 106.74217298 296.45668161 93.4515401 296.494035 C79.79843936 296.53209974 66.14541891 296.55148094 52.49226391 296.55178314 C44.82940596 296.55236788 37.1667412 296.56087129 29.50393295 296.58978081 C22.98322533 296.61426943 16.46278147 296.62159431 9.94204031 296.60653328 C6.61544239 296.59935539 3.28979044 296.6029699 -0.03681946 296.62294388 C-3.64309792 296.64328042 -7.24801878 296.63292393 -10.85427856 296.61473083 C-11.90524629 296.6279308 -12.95621401 296.64113077 -14.03902924 296.65473074 C-18.60400901 296.60198978 -21.96093735 296.54668508 -25.63410759 293.64907932 C-29.24700933 289.60372914 -29.09186048 286.81124077 -28.87890625 281.58203125 C-28.83056641 280.32841797 -28.78222656 279.07480469 -28.73242188 277.78320312 C-28.67634766 276.47287109 -28.62027344 275.16253906 -28.5625 273.8125 C-28.50925765 272.4772337 -28.4565174 271.14194728 -28.40429688 269.80664062 C-28.27447654 266.53752856 -28.13950464 263.26871081 -28 260 C-28.66 260 -29.32 260 -30 260 C-30.10957031 260.66902344 -30.21914062 261.33804687 -30.33203125 262.02734375 C-32.64182375 272.30659575 -37.21197402 284.24220153 -43 293 C-47.44220397 295.77115361 -51.05373466 295.01179962 -56 294 C-60.00302325 292.88344682 -63.90122028 291.52647466 -67.8125 290.125 C-68.92310791 289.73296387 -70.03371582 289.34092773 -71.17797852 288.93701172 C-79.98049228 285.79601852 -88.7225945 282.50015574 -97.4375 279.125 C-98.64575439 278.66109863 -99.85400879 278.19719727 -101.09887695 277.71923828 C-102.2199585 277.27821777 -103.34104004 276.83719727 -104.49609375 276.3828125 C-105.48794678 275.99496582 -106.4797998 275.60711914 -107.50170898 275.20751953 C-109.9354996 274.03117551 -111.35312028 273.12294131 -113 271 C-114.28373778 265.77737899 -113.84498066 262.19168001 -112.1875 257.125 C-111.96956787 256.45863525 -111.75163574 255.79227051 -111.52709961 255.10571289 C-108.18313851 245.19329627 -104.11792741 235.52887766 -100.16308594 225.84912109 C-98.65534205 222.15571825 -97.16754383 218.45457351 -95.6875 214.75 C-95.22601563 213.595 -94.76453125 212.44 -94.2890625 211.25 C-91.36838624 203.88635561 -88.53893968 196.49237877 -85.81933594 189.05224609 C-77.8135922 167.1676534 -69.51353167 145.41989237 -60.46582031 123.94433594 C-55.97269626 113.16857985 -51.98139678 102.231542 -48.09545898 91.22436523 C-45.71608803 84.51225082 -43.18613821 77.95250012 -40.15893555 71.49853516 C-38.33142725 67.55863207 -36.72543644 63.53634935 -35.125 59.5 C-34.78331787 58.64180664 -34.44163574 57.78361328 -34.08959961 56.89941406 C-31.83853041 51.2099787 -29.6684473 45.49460734 -27.5625 39.75 C-27.28510986 38.99380371 -27.00771973 38.23760742 -26.72192383 37.45849609 C-25.43636781 33.94568608 -24.15577873 30.4311879 -22.88476562 26.91308594 C-21.70266549 23.64716797 -20.50823031 20.38594876 -19.3125 17.125 C-18.75961304 15.58150879 -18.75961304 15.58150879 -18.19555664 14.00683594 C-14.64279112 4.36716446 -11.33924083 -1.89758724 0 0 Z " fill="#CC4D42" transform="translate(149,102)"/>
<path d="M0 0 C0.76111588 -0.0071553 1.52223175 -0.01431061 2.30641174 -0.02168274 C3.1165271 -0.02437164 3.92664246 -0.02706055 4.76130676 -0.02983093 C6.06993431 -0.03968773 6.06993431 -0.03968773 7.40499878 -0.04974365 C10.26961875 -0.06933306 13.13418692 -0.08110072 15.99885559 -0.09111023 C17.47113334 -0.09722352 17.47113334 -0.09722352 18.97315407 -0.10346031 C24.15839549 -0.12424957 29.34361092 -0.13858771 34.52888489 -0.147995 C39.88574785 -0.15910565 45.24220072 -0.19357908 50.59891796 -0.23316669 C54.72097564 -0.25926262 58.84293388 -0.26768006 62.96506691 -0.27127647 C64.94066991 -0.27615267 66.91626817 -0.28779593 68.89179039 -0.30631447 C71.64941461 -0.33057912 74.40595296 -0.32976547 77.16365051 -0.32279968 C78.38793259 -0.34201477 78.38793259 -0.34201477 79.63694763 -0.36161804 C83.19336318 -0.32880745 85.34141562 -0.15839206 88.27206421 1.93893433 C90.54744943 5.29689272 90.37159056 8.67957237 90.37776184 12.60029602 C90.39452469 13.44109711 90.41128754 14.28189819 90.42855835 15.1481781 C90.47817696 17.8979406 90.49926103 20.64704032 90.51838684 23.39717102 C90.54344032 25.29123069 90.56973498 27.18527433 90.59724426 29.07929993 C90.64911068 32.91667976 90.68796439 36.75388977 90.71711731 40.59150696 C90.75187936 44.92467627 90.82180015 49.25589821 90.91300964 53.58821106 C90.97270781 56.54453607 91.01479707 59.50090385 91.0514679 62.45759583 C91.07097992 63.82691877 91.09655186 65.19616962 91.12837219 66.56526184 C91.16968696 68.4542196 91.18265667 70.34373407 91.19416809 72.23310852 C91.21604187 73.81164612 91.21604187 73.81164612 91.23835754 75.42207336 C90.6473462 78.84901813 89.47996566 80.04037366 86.76838684 82.14717102 C86.10838684 82.14717102 85.44838684 82.14717102 84.76838684 82.14717102 C84.43838684 82.80717102 84.10838684 83.46717102 83.76838684 84.14717102 C83.43838684 83.81717102 83.10838684 83.48717102 82.76838684 83.14717102 C81.31256357 83.04997196 79.85203453 83.02238005 78.39297009 83.02247238 C77.44247884 83.02008143 76.49198759 83.01769048 75.51269358 83.01522708 C74.45610602 83.01765957 73.39951846 83.02009206 72.31091309 83.02259827 C71.19807113 83.02118812 70.08522917 83.01977797 68.93866473 83.01832509 C65.17836113 83.01465067 61.41809474 83.01801777 57.65779114 83.02119446 C54.97451105 83.01980074 52.29123489 83.0179845 49.60795593 83.01553345 C44.56628283 83.01143752 39.52461448 83.00920369 34.4829397 83.00911745 C24.57642422 83.00891505 14.66995789 82.99647422 4.76345825 82.97950745 C3.20541961 82.97690158 1.64738096 82.97430277 0.0893423 82.97171092 C-2.27218234 82.96777236 -4.63370697 82.96382587 -6.99523154 82.9598497 C-15.90532231 82.94489364 -24.81541458 82.93127412 -33.72550964 82.91914368 C-34.54033273 82.91803012 -35.35515582 82.91691655 -36.19467052 82.91576925 C-49.39979193 82.89819319 -62.60488271 82.89532512 -75.81001387 82.89699408 C-89.35670623 82.89827219 -102.90328431 82.88056059 -116.44993275 82.84597611 C-124.81149347 82.82529703 -133.17278082 82.82001048 -141.53435614 82.83430442 C-147.26348134 82.84275029 -152.99239364 82.8330669 -158.72147385 82.80899492 C-162.0294377 82.79565902 -165.33678475 82.79325609 -168.64476204 82.80711555 C-172.2280714 82.82088674 -175.80996718 82.80420765 -179.39318848 82.77967834 C-180.44308388 82.79103372 -181.49297927 82.8023891 -182.57468969 82.81408858 C-189.57806569 82.72038567 -189.57806569 82.72038567 -192.87170696 79.83159256 C-194.63388992 76.35308654 -194.8955014 73.23272123 -194.93864441 69.40888977 C-194.95786453 68.65933517 -194.97708466 67.90978058 -194.99688721 67.13751221 C-195.04292509 64.70246132 -195.04906364 62.2701274 -195.04411316 59.83467102 C-195.04663086 59.00481689 -195.04914856 58.17496277 -195.05174255 57.31996155 C-195.02314451 43.38060004 -192.76782863 31.82924599 -186.63299561 19.184021 C-184.98182929 15.60587972 -183.51973169 11.9728228 -182.07194519 8.30879211 C-181.79729935 7.61778915 -181.5226535 6.92678619 -181.23968506 6.21484375 C-180.56878419 4.52623197 -179.8999824 2.83678645 -179.23161316 1.14717102 C-178.37223868 1.14809281 -177.51286421 1.14901461 -176.62744808 1.14996433 C-155.71192059 1.17205371 -134.79639512 1.18859925 -113.88085842 1.19898319 C-103.76624571 1.20413832 -93.65164079 1.21116613 -83.53703308 1.22261047 C-74.7206117 1.2325812 -65.90419596 1.23903015 -57.08776909 1.24125952 C-52.42005182 1.24256255 -47.75235069 1.24562274 -43.0846386 1.25290108 C-38.68935621 1.25969896 -34.29409658 1.2617803 -29.89880943 1.2602787 C-28.2875786 1.26055333 -26.67634698 1.26253607 -25.0651207 1.2663765 C-22.86049424 1.27137263 -20.65595301 1.27014756 -18.45132446 1.26742554 C-16.60266863 1.26880823 -16.60266863 1.26880823 -14.71666622 1.27021885 C-9.76663809 1.0954467 -4.95356378 0.03246559 0 0 Z " fill="#EAD03D" transform="translate(369.2316131591797,178.8528289794922)"/>
<path d="M0 0 C4.85964144 0.10799203 8.15307774 1.47937295 12.4375 3.75 C16.97593255 6.12274402 21.33368075 7.82054061 26.25 9.25 C33.65232775 11.40781605 40.74914167 14.18709047 47.875 17.125 C49.47263184 17.7732373 49.47263184 17.7732373 51.10253906 18.43457031 C52.09737305 18.85061523 53.09220703 19.26666016 54.1171875 19.6953125 C55.45692627 20.2524292 55.45692627 20.2524292 56.82373047 20.82080078 C59 22 59 22 61 25 C60.81089454 32.23533917 58.1446258 38.36439844 55.4375 45 C54.69824269 46.8472119 53.95899085 48.694426 53.21989441 50.54170227 C52.40627713 52.57008171 51.58803776 54.59654231 50.76855469 56.62255859 C47.858073 63.8199245 44.97789702 71.02947794 42.09329224 78.23724365 C41.40253705 79.96297618 40.71151462 81.68860176 40.02023315 83.41412354 C32.11090654 103.15795958 24.41510448 122.97800017 16.87890625 142.8671875 C16.15692304 144.7703534 15.43491779 146.67351094 14.71289062 148.57666016 C13.30989184 152.27515159 11.91212538 155.97556081 10.51757812 159.67724609 C7.55546074 167.51079969 4.53862812 175.23846879 0.97729492 182.82421875 C-0.34636322 185.77111892 -1.25471221 188.76682932 -2.125 191.875 C-7.13071466 208.77195412 -13.64718463 225.57946855 -21.3828125 241.40234375 C-24.48789163 248.31001979 -26.76955824 255.53399133 -29.20654297 262.69824219 C-30.98562789 267.85923068 -32.93752385 272.94548098 -35 278 C-35.48726562 279.25296875 -35.48726562 279.25296875 -35.984375 280.53125 C-36.9375 282.75 -36.9375 282.75 -39 286 C-43.73243059 287.43841979 -46.64890713 286.7539636 -51.1484375 284.90234375 C-52.89253906 284.19875732 -52.89253906 284.19875732 -54.671875 283.48095703 C-55.90632238 282.96664504 -57.14069603 282.45215607 -58.375 281.9375 C-59.64258257 281.4214233 -60.91081638 280.90694335 -62.1796875 280.39404297 C-64.66973692 279.38692642 -67.15722729 278.37426488 -69.64355469 277.35791016 C-73.73543929 275.70246484 -77.85665467 274.14569589 -82 272.625 C-83.19882813 272.17253906 -84.39765625 271.72007812 -85.6328125 271.25390625 C-87.92927653 270.39872649 -90.23740437 269.57438729 -92.5546875 268.77734375 C-100.47991543 265.87764271 -100.47991543 265.87764271 -103 261.625 C-103 257.81949775 -102.2589533 256.20530595 -100.19140625 253.09375 C-98.7606148 250.57930995 -98.08515442 248.1637434 -97.3125 245.375 C-95.5966735 239.51591805 -93.38825779 234.02615876 -90.9375 228.4375 C-82.04093869 208.06174226 -74.30855627 187.22756848 -66.53118896 166.40634155 C-51.99190094 127.49501463 -51.99190094 127.49501463 -45.4375 112.875 C-39.23653694 98.98245776 -33.72171297 84.6906547 -29.125 70.1875 C-25.5714978 59.04971566 -20.84890432 48.35421685 -16.32554626 37.58560181 C-13.1817439 30.08044133 -10.18954398 22.51474065 -7.20996094 14.94311523 C-2.14122492 2.14122492 -2.14122492 2.14122492 0 0 Z " fill="#6679BB" transform="translate(142,106)"/>
<path d="M0 0 C12.98160406 -0.04000974 25.96317513 -0.07065781 38.94483566 -0.08358097 C41.63375153 -0.08650903 44.32266357 -0.09065973 47.01157761 -0.0949297 C76.38160037 -0.13469178 76.38160037 -0.13469178 89.38633347 0.42127514 C90.5895575 0.46682034 90.5895575 0.46682034 91.81708908 0.51328564 C97.04023274 0.79392442 97.04023274 0.79392442 99.28477097 3.03846264 C99.55892563 5.15697765 99.55892563 5.15697765 99.59116745 7.80774975 C99.60715485 8.79895321 99.62314224 9.79015667 99.63961411 10.8113966 C99.64765816 12.42232944 99.64765816 12.42232944 99.65586472 14.06580639 C99.66489319 15.16566372 99.67392166 16.26552105 99.68322372 17.39870739 C99.69775076 19.72806089 99.70661902 22.05745543 99.71030807 24.38685131 C99.72221198 27.95826646 99.77138263 31.52795895 99.82188034 35.09900951 C99.83134302 37.35876667 99.83857879 39.61853448 99.84336472 41.87830639 C99.86289703 42.95023739 99.88242935 44.02216839 99.90255356 45.12658215 C99.89647583 46.12093777 99.8903981 47.11529339 99.8841362 48.139781 C99.88920685 49.01533138 99.8942775 49.89088177 99.8995018 50.79296398 C99.28477097 53.03846264 99.28477097 53.03846264 97.35471725 54.6741848 C93.00555158 56.60694511 89.24809493 56.30391711 84.55089951 56.11240673 C83.57506011 56.08589385 82.59922072 56.05938097 81.59381044 56.03206468 C79.47094864 55.97340825 77.3482642 55.90803888 75.225788 55.83678174 C69.42892835 55.64456431 63.63068817 55.50817598 57.83240891 55.3665266 C56.62652939 55.33598836 55.42064988 55.30545011 54.17822856 55.27398646 C41.71169097 54.97167501 29.25018306 54.9430405 16.78062057 54.97254467 C15.1109917 54.97567059 15.1109917 54.97567059 13.40763295 54.97885966 C7.63820327 54.99007391 1.86879966 55.00559333 -3.90060997 55.02442837 C-11.27731971 55.04815085 -18.65402745 55.06097487 -26.03076553 55.07212353 C-47.62383589 55.10610818 -69.21685486 55.1517473 -90.8098566 55.21578552 C-101.80649333 55.24811393 -112.80311301 55.26881928 -123.79979128 55.28005779 C-131.13611357 55.28814314 -138.47224255 55.30933964 -145.80850232 55.34026265 C-150.3307618 55.35619424 -154.852965 55.35968303 -159.37524986 55.3594923 C-161.47562792 55.36192413 -163.57600704 55.36954726 -165.67634583 55.38262081 C-168.53043996 55.39965829 -171.38394678 55.39846385 -174.23807144 55.39249706 C-175.07681197 55.40191771 -175.91555249 55.41133835 -176.7797094 55.42104447 C-179.08206654 55.40481281 -179.08206654 55.40481281 -182.71522903 55.03846264 C-189.75033416 44.48580495 -186.98773629 16.19423256 -184.71522903 4.03846264 C-184.05522903 3.04846264 -183.39522903 2.05846264 -182.71522903 1.03846264 C-180.06557846 0.65370178 -180.06557846 0.65370178 -176.62648392 0.63973522 C-175.32357218 0.62719645 -174.02066044 0.61465767 -172.67826653 0.60173893 C-171.22248816 0.60291374 -169.76670999 0.60437393 -168.31093216 0.60608959 C-166.7801694 0.59707555 -165.24941386 0.58675363 -163.71866798 0.57522297 C-159.52613811 0.54745659 -155.33374376 0.53835112 -151.14113379 0.532377 C-146.6926443 0.52290172 -142.24425396 0.49648831 -137.79582596 0.47207165 C-129.2264755 0.42775441 -120.65714461 0.39929545 -112.08771265 0.37652189 C-102.27125493 0.34987427 -92.45488477 0.30747773 -82.6384871 0.26455307 C-61.8044888 0.17427497 -40.97045914 0.11107278 -20.13633716 0.05789089 C-13.42421786 0.04066259 -6.7121092 0.02074332 0 0 Z " fill="#78BBAE" transform="translate(346.7152290344238,264.961537361145)"/>
<path d="M0 0 C3.11204194 1.26839827 6.08382914 2.66943823 9.08911133 4.16479492 C13.28223291 6.23845232 17.39840088 7.90470073 21.875 9.3125 C29.08042143 11.62222508 36.13668718 14.25488489 43.1875 17 C44.28755371 17.41548096 45.38760742 17.83096191 46.52099609 18.2590332 C47.55949707 18.66855225 48.59799805 19.07807129 49.66796875 19.5 C50.59891357 19.8609375 51.5298584 20.221875 52.48901367 20.59375 C55.52486348 22.29394396 57.07040775 24.12389372 59 27 C60.21909275 33.86726347 56.94156982 39.86833691 54.3125 46.0625 C51.50366951 52.79953196 48.7696952 59.52954213 46.33276367 66.41186523 C45.89284592 67.65177719 45.45292816 68.89168915 44.99967957 70.16917419 C44.66978531 71.10334671 44.33989105 72.03751923 44 73 C45.59432688 72.99861731 45.59432688 72.99861731 47.22086239 72.99720669 C73.33349301 72.97480045 99.44612237 72.95847779 125.55876064 72.94818783 C138.18769616 72.94307679 150.81662525 72.93613586 163.44555664 72.92456055 C174.47956394 72.9144521 185.51356659 72.90810908 196.54757839 72.90591151 C202.36575942 72.90463118 208.18392714 72.90172256 214.00210381 72.89426994 C229.00184392 72.87606398 244.00053211 72.90678578 259 73 C260.13051489 73.00613642 261.26102979 73.01227284 262.42580271 73.01859522 C269.33170729 73.05782692 276.23674546 73.12053886 283.14212048 73.21514237 C285.31155251 73.24220236 287.48107733 73.26270853 289.6506356 73.27629077 C292.63923476 73.29673766 295.62644455 73.34210255 298.61463928 73.39405823 C299.93662148 73.39544357 299.93662148 73.39544357 301.28531039 73.3968569 C305.37771355 73.49421883 307.48956061 73.67712386 311.02408504 75.91287136 C317.69170683 82.95577791 314.80105115 98.70762793 315 108 C315.02251831 108.98071472 315.04503662 109.96142944 315.0682373 110.97186279 C315.21869262 117.65529381 315.32776933 124.33792179 315.39596558 131.02270508 C315.42363523 133.29759419 315.46164619 135.57238122 315.51004028 137.84692383 C315.57607048 141.08455653 315.60311276 144.32038325 315.62109375 147.55859375 C315.64887909 148.53775253 315.67666443 149.51691132 315.70529175 150.52574158 C315.68564721 157.08429926 315.68564721 157.08429926 313.70422363 159.73054504 C310.89145423 162.15726545 308.34367318 163.62015484 304.625 163.8125 C303.42875 163.874375 302.2325 163.93625 301 164 C301.16134933 164.55917114 301.32269867 165.11834229 301.48893738 165.69445801 C302.03481936 168.15707956 302.14778589 170.36739266 302.17700195 172.88867188 C302.18983719 173.85647583 302.20267242 174.82427979 302.21589661 175.82141113 C302.22697701 177.37934387 302.22697701 177.37934387 302.23828125 178.96875 C302.246353 180.04120972 302.25442474 181.11366943 302.26274109 182.21862793 C302.27655976 184.48476554 302.2872918 186.75092378 302.29516602 189.01708984 C302.31243555 192.48705025 302.35634878 195.95607159 302.40039062 199.42578125 C302.41051302 201.62759717 302.41903054 203.82942117 302.42578125 206.03125 C302.44328934 207.06987183 302.46079742 208.10849365 302.47883606 209.17858887 C302.45718142 216.3421363 302.45718142 216.3421363 300.1862793 219.60986328 C293.21999712 224.03934521 284.4567992 223.41515035 276.5 223.625 C275.29601562 223.66367187 274.09203125 223.70234375 272.8515625 223.7421875 C269.90118881 223.83585016 266.95081144 223.92157524 264 224 C264.144375 225.10085938 264.28875 226.20171875 264.4375 227.3359375 C265.90636014 239.92169472 266.27245949 252.47917502 266.35449219 265.13946533 C266.36813533 267.04248103 266.38861453 268.94546031 266.41601562 270.84832764 C266.45201235 273.56590311 266.46033665 276.28221235 266.4609375 279 C266.4823732 280.22706161 266.4823732 280.22706161 266.50424194 281.47891235 C266.46292914 286.71782834 265.79189389 290.06799859 262 294 C255.51108741 296.15486174 249.394441 296.28983388 242.60031128 296.27415466 C241.47064882 296.27939134 240.34098637 296.28462802 239.17709172 296.29002339 C235.40171646 296.30499399 231.62647709 296.30572789 227.85107422 296.30639648 C225.14044553 296.31294199 222.42982849 296.32239888 219.71920776 296.33161926 C212.36414183 296.35440932 205.00910485 296.36238237 197.65400839 296.36744571 C193.06012768 296.37070762 188.4662553 296.3772328 183.8723793 296.3844471 C171.14693155 296.40399981 158.4214915 296.42041359 145.69602776 296.42332363 C144.88275739 296.4235112 144.06948702 296.42369877 143.2315721 296.42389202 C141.58300916 296.42425827 139.93444623 296.42462196 138.28588329 296.42498314 C137.46757208 296.42516595 136.64926087 296.42534876 135.80615234 296.42553711 C134.98684054 296.42571766 134.16752874 296.42589821 133.32338931 296.42608423 C120.03270033 296.42962975 106.74217298 296.45668161 93.4515401 296.494035 C79.79843936 296.53209974 66.14541891 296.55148094 52.49226391 296.55178314 C44.82940596 296.55236788 37.1667412 296.56087129 29.50393295 296.58978081 C22.98322533 296.61426943 16.46278147 296.62159431 9.94204031 296.60653328 C6.61544239 296.59935539 3.28979044 296.6029699 -0.03681946 296.62294388 C-3.64309792 296.64328042 -7.24801878 296.63292393 -10.85427856 296.61473083 C-11.90524629 296.6279308 -12.95621401 296.64113077 -14.03902924 296.65473074 C-18.60400901 296.60198978 -21.96093735 296.54668508 -25.63410759 293.64907932 C-29.24700933 289.60372914 -29.09186048 286.81124077 -28.87890625 281.58203125 C-28.83056641 280.32841797 -28.78222656 279.07480469 -28.73242188 277.78320312 C-28.67634766 276.47287109 -28.62027344 275.16253906 -28.5625 273.8125 C-28.50925765 272.4772337 -28.4565174 271.14194728 -28.40429688 269.80664062 C-28.27447654 266.53752856 -28.13950464 263.26871081 -28 260 C-28.66 260 -29.32 260 -30 260 C-30.10957031 260.66902344 -30.21914062 261.33804687 -30.33203125 262.02734375 C-32.64182375 272.30659575 -37.21197402 284.24220153 -43 293 C-47.44220397 295.77115361 -51.05373466 295.01179962 -56 294 C-60.00302325 292.88344682 -63.90122028 291.52647466 -67.8125 290.125 C-68.92310791 289.73296387 -70.03371582 289.34092773 -71.17797852 288.93701172 C-79.98049228 285.79601852 -88.7225945 282.50015574 -97.4375 279.125 C-98.64575439 278.66109863 -99.85400879 278.19719727 -101.09887695 277.71923828 C-102.2199585 277.27821777 -103.34104004 276.83719727 -104.49609375 276.3828125 C-105.48794678 275.99496582 -106.4797998 275.60711914 -107.50170898 275.20751953 C-109.9354996 274.03117551 -111.35312028 273.12294131 -113 271 C-114.28373778 265.77737899 -113.84498066 262.19168001 -112.1875 257.125 C-111.96956787 256.45863525 -111.75163574 255.79227051 -111.52709961 255.10571289 C-108.18313851 245.19329627 -104.11792741 235.52887766 -100.16308594 225.84912109 C-98.65534205 222.15571825 -97.16754383 218.45457351 -95.6875 214.75 C-95.22601563 213.595 -94.76453125 212.44 -94.2890625 211.25 C-91.36838624 203.88635561 -88.53893968 196.49237877 -85.81933594 189.05224609 C-77.8135922 167.1676534 -69.51353167 145.41989237 -60.46582031 123.94433594 C-55.97269626 113.16857985 -51.98139678 102.231542 -48.09545898 91.22436523 C-45.71608803 84.51225082 -43.18613821 77.95250012 -40.15893555 71.49853516 C-38.33142725 67.55863207 -36.72543644 63.53634935 -35.125 59.5 C-34.78331787 58.64180664 -34.44163574 57.78361328 -34.08959961 56.89941406 C-31.83853041 51.2099787 -29.6684473 45.49460734 -27.5625 39.75 C-27.28510986 38.99380371 -27.00771973 38.23760742 -26.72192383 37.45849609 C-25.43636781 33.94568608 -24.15577873 30.4311879 -22.88476562 26.91308594 C-21.70266549 23.64716797 -20.50823031 20.38594876 -19.3125 17.125 C-18.75961304 15.58150879 -18.75961304 15.58150879 -18.19555664 14.00683594 C-14.64279112 4.36716446 -11.33924083 -1.89758724 0 0 Z M-8.53125 5.4296875 C-10.66396987 9.16194727 -12.04011238 13.08998599 -13.5 17.125 C-16.58764588 25.45835527 -19.92633046 33.6490919 -23.4375 41.8125 C-30.09217732 57.35845081 -36.00440036 73.13549009 -41.5 89.125 C-46.02901699 102.2868347 -51.44174192 115.09035427 -56.96875 127.859375 C-59.80509002 134.46840084 -62.41367566 141.14138591 -64.9375 147.875 C-65.63020996 149.70792603 -65.63020996 149.70792603 -66.33691406 151.57788086 C-68.78660834 158.06463832 -71.21064437 164.56062282 -73.61471558 171.06442261 C-81.51571158 192.43460616 -89.80689511 213.57363731 -98.70172119 234.55041504 C-101.84204378 241.96593981 -104.88998373 249.35822233 -107.33203125 257.03515625 C-108 259 -108 259 -109.3125 261.75 C-110.22415476 264.03097982 -110.22415476 264.03097982 -109.3515625 266.4921875 C-107.6362018 269.67502441 -106.41923569 270.12269748 -103.0625 271.375 C-101.97453125 271.79136719 -100.8865625 272.20773437 -99.765625 272.63671875 C-98.51107147 273.09295046 -97.25582569 273.54728181 -96 274 C-93.87660222 274.77806629 -91.75399266 275.55826151 -89.63134766 276.33837891 C-88.06738126 276.9110758 -86.5019082 277.47967265 -84.93505859 278.04443359 C-80.04941854 279.81989761 -75.22971429 281.71084953 -70.4296875 283.70703125 C-69.31166748 284.16891846 -68.19364746 284.63080566 -67.04174805 285.10668945 C-64.84010915 286.02122131 -62.64341915 286.94777839 -60.45239258 287.88745117 C-58.93488403 288.51550659 -58.93488403 288.51550659 -57.38671875 289.15625 C-56.49170654 289.53587891 -55.59669434 289.91550781 -54.67456055 290.30664062 C-51.39914341 291.15576748 -49.24297305 290.9170924 -46 290 C-44.45044352 287.76774958 -43.50767062 286.02978136 -42.5 283.5625 C-42.06192017 282.56138184 -42.06192017 282.56138184 -41.61499023 281.54003906 C-39.17358122 275.80567452 -37.23331053 269.91867152 -35.33984375 263.9855957 C-32.09172971 253.92819522 -27.79448045 244.2912387 -23.5078125 234.640625 C-20.00206291 226.67841407 -16.90998896 218.58981449 -13.875 210.4375 C-13.45492676 209.3134375 -13.03485352 208.189375 -12.60205078 207.03125 C-10.62594339 201.67411586 -8.78012549 196.33374766 -7.1953125 190.84765625 C-5.29417124 184.52100119 -2.77549365 178.55335904 -0.16983032 172.49462891 C3.34085115 164.29909865 6.46725928 155.97857246 9.55599976 147.61663818 C11.17959826 143.22374216 12.81834179 138.83650335 14.45703125 134.44921875 C14.92995354 133.18238251 14.92995354 133.18238251 15.41242981 131.88995361 C18.45855944 123.74527397 21.65039059 115.66672668 24.93652344 107.61621094 C27.25190339 101.92024868 29.52895143 96.20878161 31.8125 90.5 C32.06664673 89.86504608 32.32079346 89.23009216 32.5826416 88.57589722 C36.39818192 79.04173492 40.18226592 69.4955739 43.9375 59.9375 C44.37360596 58.82761719 44.80971191 57.71773437 45.2590332 56.57421875 C46.09202833 54.44996091 46.92298543 52.32490253 47.75170898 50.19897461 C48.63122121 47.94506327 49.51670701 45.69347839 50.40649414 43.44360352 C50.86016357 42.28658936 51.31383301 41.1295752 51.78125 39.9375 C52.19310547 38.89335937 52.60496094 37.84921875 53.02929688 36.7734375 C54.14973461 33.85911638 54.14973461 33.85911638 54.5625 30.0625 C51.81376374 24.67497693 46.38708859 23.17729855 41 21 C40.31599121 20.71624512 39.63198242 20.43249023 38.92724609 20.14013672 C30.24819078 16.55696867 21.50557833 13.44856893 12.50390625 10.78417969 C7.69078397 9.32218159 3.38233924 7.39905638 -0.984375 4.91796875 C-3.8610891 3.60783733 -6.10512966 3.16448331 -8.53125 5.4296875 Z M212.68675613 77.50168228 C208.99834453 78.00022376 205.50041657 78.12303696 201.7802887 78.12025452 C200.74226204 78.12153615 200.74226204 78.12153615 199.68326515 78.12284368 C197.38329883 78.12448012 195.08340677 78.11900744 192.78344727 78.11352539 C191.1272634 78.1132431 189.47107942 78.11340208 187.81489563 78.1139679 C183.33197102 78.11425422 178.84907329 78.10838413 174.36615491 78.10139394 C169.67630987 78.09513296 164.98646418 78.09455443 160.2966156 78.09336853 C151.42160139 78.09026331 142.54659953 78.08206082 133.67159075 78.07201904 C123.56521368 78.06083279 113.45883602 78.05534112 103.3524543 78.05032361 C82.56829598 78.03987753 61.78414877 78.02229375 41 78 C39.18317241 82.58903614 37.36846276 87.17890209 35.55566406 91.76953125 C34.93937603 93.32932846 34.32252176 94.88890206 33.70507812 96.44824219 C32.81489529 98.69667174 31.92678859 100.94591202 31.0390625 103.1953125 C30.76502594 103.8861795 30.49098938 104.57704651 30.20864868 105.28884888 C26.98941361 112.91736178 26.98941361 112.91736178 25.70947266 120.99829102 C25.69671295 121.72246719 25.68395325 122.44664337 25.67080688 123.19276428 C25.66858124 123.95544113 25.66635559 124.71811798 25.6640625 125.50390625 C25.6574057 126.30481186 25.6507489 127.10571747 25.64389038 127.93089294 C25.6338096 129.6159334 25.62907194 131.30101341 25.62939453 132.98608398 C25.62500691 135.55844636 25.58860207 138.12911084 25.55078125 140.70117188 C25.54491488 142.34374417 25.54094429 143.98632456 25.5390625 145.62890625 C25.52469147 146.39360733 25.51032043 147.15830841 25.49551392 147.94618225 C25.52380847 151.26166957 25.86304921 153.72655314 27.35338402 156.70227432 C31.48562054 160.28977853 35.52775087 159.68991062 40.83169556 159.63250732 C42.5069201 159.64398249 42.5069201 159.64398249 44.21598756 159.65568948 C47.9719566 159.67535183 51.72693481 159.65930084 55.48291016 159.64355469 C58.16990855 159.650367 60.85683178 159.65915929 63.54380798 159.67045593 C69.33602966 159.69090104 75.12803053 159.693188 80.92027664 159.68328094 C89.2970443 159.66906697 97.67357493 159.68330935 106.05031852 159.70470288 C119.64358216 159.738738 133.23677516 159.7512303 146.83007812 159.74951172 C160.03029308 159.7479023 173.2304604 159.75392034 186.43066406 159.77197266 C187.6505662 159.77363462 187.6505662 159.77363462 188.89511283 159.77533016 C197.76856025 159.78761083 206.64200432 159.80172481 215.51544762 159.81666946 C217.86714638 159.82060045 220.21884516 159.82452368 222.57054396 159.8284367 C224.12042498 159.83102945 225.67030596 159.83365302 227.22018687 159.83630791 C237.09459492 159.85308657 246.96896569 159.86181567 256.84338784 159.86198473 C261.82072837 159.86219359 266.79806473 159.86568887 271.77540304 159.8702344 C275.08092194 159.87304901 278.38641506 159.87350691 281.69193459 159.87071037 C285.26873243 159.8678235 288.84547679 159.87089835 292.42227173 159.87542725 C293.47594645 159.87299475 294.52962117 159.87056226 295.61522543 159.86805606 C296.56770773 159.87044701 297.52019002 159.87283796 298.50153542 159.87530136 C299.32791689 159.87524904 300.15429836 159.87519672 301.00572169 159.87514281 C303 160 303 160 305 161 C305 160.34 305 159.68 305 159 C305.804375 158.71125 306.60875 158.4225 307.4375 158.125 C310.1326468 157.26737432 310.1326468 157.26737432 311 155 C311.09863486 153.09578884 311.13078895 151.18801293 311.1328125 149.28125 C311.13506836 148.05825195 311.13732422 146.83525391 311.13964844 145.57519531 C311.13559844 144.21679414 311.13069037 142.85839529 311.125 141.5 C311.12167664 140.4705426 311.12167664 140.4705426 311.11828613 139.42028809 C311.10109982 134.81038997 311.06555585 130.20079087 311.02282715 125.59106445 C310.9988774 122.87257587 310.98035713 120.154078 310.96191406 117.43554688 C310.92624717 112.64956828 310.86602804 107.86436571 310.79046631 103.07885742 C310.76352721 101.19563986 310.74320372 99.31231584 310.72955322 97.42895508 C310.70834618 94.76967396 310.66194769 92.1119467 310.609375 89.453125 C310.60751694 88.2582547 310.60751694 88.2582547 310.60562134 87.03924561 C310.5191904 83.80115475 310.34372157 81.50725597 308.50367737 78.79176331 C304.93730126 76.23947684 301.61733469 76.46376396 297.39526367 76.5300293 C296.52810226 76.5278389 295.66094086 76.5256485 294.76750183 76.52339172 C291.90060283 76.52108022 289.03473095 76.54734573 286.16796875 76.57421875 C284.17263617 76.57914364 282.17729896 76.58244188 280.18196106 76.58418274 C275.99802919 76.59182582 271.81443902 76.61239093 267.63061523 76.64331055 C262.27747881 76.68280847 256.92456504 76.70090787 251.57129955 76.71061993 C246.45765934 76.72061828 241.34407286 76.7404857 236.23046875 76.76171875 C235.25862326 76.7651145 234.28677776 76.76851025 233.28548241 76.7720089 C230.52123093 76.78364526 227.75711573 76.80217767 224.99291992 76.82299805 C224.18280457 76.82568695 223.37268921 76.82837585 222.5380249 76.83114624 C221.77690903 76.83830154 221.01579315 76.84545685 220.23161316 76.85282898 C219.57957004 76.85710246 218.92752691 76.86137594 218.25572491 76.86577892 C215.81485891 76.9767896 215.81485891 76.9767896 212.68675613 77.50168228 Z M174.98010254 163.02606201 C154.03349799 163.07999842 133.08700817 163.14733602 112.14053154 163.23892975 C102.32113389 163.28168339 92.50176942 163.31979068 82.68231201 163.34588623 C74.19022567 163.36858287 65.69825988 163.40188986 57.20626986 163.44850093 C52.78872146 163.47244695 48.37128995 163.49135351 43.95367813 163.49764824 C39.85907756 163.50364942 35.76478544 163.52344082 31.67029881 163.55428338 C30.17367981 163.56309637 28.67702068 163.56676984 27.18037677 163.56500602 C25.14979756 163.56336735 23.11923096 163.58173188 21.08874512 163.60127258 C19.95384392 163.60588155 18.81894272 163.61049051 17.64965057 163.61523914 C16.77526588 163.74221023 15.9008812 163.86918131 15 164 C7.56075124 175.15887313 11.24576134 201.90940776 13 215 C13.66 215.99 14.32 216.98 15 218 C17.89421765 218.29206317 20.57410864 218.38659206 23.47042847 218.35403442 C24.80228186 218.35682099 24.80228186 218.35682099 26.16104138 218.35966384 C29.1568688 218.3622772 32.15218418 218.34336855 35.14794922 218.32470703 C37.29044485 218.32222455 39.43294239 218.32107657 41.57543945 218.32116699 C46.20914016 218.31845204 50.84268502 218.30616944 55.47634506 218.28662491 C62.85867164 218.25552861 70.24093875 218.24531055 77.62332153 218.23776245 C88.70072238 218.22405451 99.77804798 218.19827234 110.85540773 218.16545092 C132.36599996 218.10176786 153.87663053 218.06043829 175.38729107 218.02792251 C182.66548731 218.01635078 189.94362671 217.99827244 197.22179282 217.97448385 C202.9419626 217.95668598 208.66213738 217.94478682 214.38232422 217.93408203 C215.48030264 217.9314851 216.57828105 217.92888817 217.70953155 217.92621255 C230.41587915 217.90196741 243.10935169 218.01280789 255.81207275 218.32806396 C257.02234276 218.35703463 258.23261277 218.38600529 259.47955763 218.41585386 C265.29772361 218.55743744 271.11445255 218.71714427 276.93122673 218.90753365 C279.0036282 218.96346125 281.07604141 219.01895577 283.14846802 219.07394409 C284.56409527 219.13002622 284.56409527 219.13002622 286.00832105 219.18724132 C290.9921391 219.33841698 290.9921391 219.33841698 295.58481598 217.63572216 C297.51681839 215.40264214 297.49538692 214.03424442 297.48583984 211.10131836 C297.4919931 210.10696274 297.49814636 209.11260712 297.50448608 208.08811951 C297.49011505 207.01618851 297.47574402 205.94425751 297.4609375 204.83984375 C297.46002106 203.73902969 297.45910461 202.63821564 297.4581604 201.50404358 C297.45211626 199.17639862 297.43634609 196.84876172 297.41162109 194.52124023 C297.37510847 190.94811524 297.37060166 187.37602643 297.37109375 183.80273438 C297.36126329 181.54426182 297.34960661 179.28579633 297.3359375 177.02734375 C297.33259903 175.4164109 297.33259903 175.4164109 297.32919312 173.77293396 C297.31643341 172.7817305 297.30367371 171.79052704 297.29052734 170.76928711 C297.28290375 169.89453232 297.27528015 169.01977753 297.26742554 168.11851501 C297.19261265 165.78395774 297.19261265 165.78395774 295 164 C292.33573861 163.67103528 289.77834838 163.48413589 287.1015625 163.3828125 C286.22360016 163.34527863 285.34563782 163.30774475 284.44107056 163.26907349 C270.32720676 162.74463541 256.19367314 162.84839839 242.07235718 162.87082291 C239.3473107 162.87504288 236.62226516 162.87799402 233.8972168 162.88070679 C221.17506525 162.89476082 208.45299986 162.928353 195.73090386 162.96766979 C188.8139742 162.98901391 181.89704265 163.00840559 174.98010254 163.02606201 Z M-15 222 C-15.23710693 222.59538574 -15.47421387 223.19077148 -15.71850586 223.80419922 C-16.79060549 226.49482514 -17.8640362 229.18491806 -18.9375 231.875 C-19.31068359 232.81214844 -19.68386719 233.74929688 -20.06835938 234.71484375 C-20.42607422 235.61074219 -20.78378906 236.50664062 -21.15234375 237.4296875 C-21.48226318 238.25710449 -21.81218262 239.08452148 -22.15209961 239.93701172 C-23 242 -23 242 -24 244 C-24.10423797 245.40332801 -24.14862516 246.81136741 -24.16113281 248.21850586 C-24.17074036 249.08958481 -24.1803479 249.96066376 -24.19024658 250.85813904 C-24.19449646 251.80085159 -24.19874634 252.74356415 -24.203125 253.71484375 C-24.20882507 254.68152481 -24.21452515 255.64820587 -24.22039795 256.6441803 C-24.22985336 258.69107974 -24.23638407 260.73799445 -24.24023438 262.78491211 C-24.24994991 265.92132988 -24.28097233 269.05709522 -24.3125 272.19335938 C-24.31902892 274.1796836 -24.32427983 276.16601252 -24.328125 278.15234375 C-24.3404718 279.09303207 -24.3528186 280.0337204 -24.36553955 281.00291443 C-24.36253845 281.87714554 -24.35953735 282.75137665 -24.35644531 283.65209961 C-24.36009094 284.42106064 -24.36373657 285.19002167 -24.36749268 285.98228455 C-23.89258824 288.58974338 -23.04479527 289.34943396 -21 291 C-19.08721231 291.43709875 -19.08721231 291.43709875 -16.96127319 291.35403442 C-15.72223991 291.35805031 -15.72223991 291.35805031 -14.45817566 291.36214733 C-13.54949234 291.34979203 -12.64080902 291.33743673 -11.70458984 291.32470703 C-10.25372231 291.32297596 -10.25372231 291.32297596 -8.77354431 291.32120991 C-5.50246995 291.31396243 -2.23189807 291.28549095 1.0390625 291.2578125 C3.39781213 291.24940658 5.75656764 291.24253521 8.11532593 291.23707581 C13.91563786 291.22089863 19.71578834 291.19202135 25.51602209 291.15826267 C38.05595845 291.08681124 50.59610792 291.06074492 63.13620281 291.03252292 C65.36760023 291.02730626 67.59899535 291.02146593 69.83039093 291.0155201 C94.04930044 290.95310359 118.26401682 291.07711239 142.48195601 291.2928381 C146.0188012 291.32409911 149.55565654 291.35410962 153.09251249 291.38412476 C168.70825276 291.51692157 184.32386503 291.65556717 199.93922341 291.82795936 C206.48913802 291.8995145 213.03909963 291.96043575 219.58919036 292.01343316 C224.13476107 292.05079674 228.67993698 292.10097913 233.22525918 292.16121411 C236.63967971 292.20255766 240.05416841 292.22422238 243.46875 292.2487793 C245.30135596 292.27898509 245.30135596 292.27898509 247.17098427 292.3098011 C248.28438368 292.31409063 249.39778309 292.31838017 250.54492188 292.32279968 C251.50845581 292.33293941 252.47198975 292.34307913 253.46472168 292.35352612 C256.48494901 291.93237739 257.82288927 291.10852727 260 289 C261.01254944 285.96235169 261.12902878 283.91997589 261.1328125 280.7421875 C261.13490723 279.65663574 261.13700195 278.57108398 261.13916016 277.45263672 C261.1344873 276.2720166 261.12981445 275.09139648 261.125 273.875 C261.12161621 272.65699707 261.11823242 271.43899414 261.11474609 270.18408203 C261.06395825 260.81904049 260.91976781 251.45595081 260.68060303 242.09381104 C260.64355658 240.61549123 260.60957653 239.13709138 260.57867432 237.65863037 C260.53369234 235.58191388 260.47579106 233.50596515 260.4140625 231.4296875 C260.36693115 229.63893799 260.36693115 229.63893799 260.31884766 227.81201172 C260.28041115 224.86511926 260.28041115 224.86511926 258 223 C252.05578039 221.75206992 246.11220894 221.86236959 240.05982971 221.87974548 C238.96762381 221.87889106 237.87541791 221.87803663 236.75011486 221.87715632 C233.09584431 221.87551118 229.44161982 221.88100711 225.78735352 221.88647461 C223.16566468 221.88675672 220.54397577 221.88659829 217.92228699 221.8860321 C212.28077786 221.8855085 206.63928033 221.88863819 200.99777412 221.89426994 C192.84116755 221.90240713 184.68456656 221.90500244 176.52795636 221.90625793 C163.29345536 221.90844496 150.05896054 221.9150956 136.82446289 221.92456055 C123.97062206 221.93374368 111.1167829 221.94082011 98.26293945 221.94506836 C97.47023769 221.94533108 96.67753593 221.94559381 95.86081291 221.94586449 C91.88394441 221.94716956 87.90707589 221.94843326 83.93020737 221.94967639 C50.95346709 221.96003814 17.97673437 221.97764698 -15 222 Z " fill="#282C4F" transform="translate(149,102)"/>
<path d="M0 0 C0.93023987 -0.00281982 1.86047974 -0.00563965 2.81890869 -0.00854492 C4.36300415 -0.00550858 4.36300415 -0.00550858 5.93829346 -0.00241089 C7.01661438 -0.00416321 8.0949353 -0.00591553 9.20593262 -0.00772095 C12.80065485 -0.01214983 16.39532845 -0.00919377 19.99005127 -0.00582886 C22.4942221 -0.00650258 24.99839287 -0.00747318 27.50256348 -0.00872803 C32.77541602 -0.01020718 38.04825591 -0.00814259 43.32110596 -0.00338745 C50.02374156 0.00258847 56.72632982 -0.00093018 63.42896652 -0.00695992 C68.6162953 -0.01061007 73.80361482 -0.00940571 78.99094391 -0.00683212 C81.45765437 -0.00617203 83.92436571 -0.00695861 86.39107513 -0.00931168 C98.1840947 -0.01807594 109.96790309 0.03412293 121.75274658 0.51028442 C123.0749074 0.55579846 123.0749074 0.55579846 124.42377853 0.60223198 C130.4549886 0.88879598 130.4549886 0.88879598 132.69317627 3.12698364 C133.585316 6.47496801 133.81929425 9.6313368 133.8225708 13.08499146 C133.82572296 14.0423822 133.82887512 14.99977295 133.8321228 15.98617554 C133.82908646 17.51767242 133.82908646 17.51767242 133.82598877 19.08010864 C133.8269455 20.13607239 133.82790222 21.19203613 133.82888794 22.27999878 C133.82956714 24.50568705 133.82773098 26.73137732 133.82354736 28.95706177 C133.81817415 32.37833039 133.82351206 35.79946899 133.82989502 39.22073364 C133.82923461 41.38219227 133.82795422 43.54365081 133.82598877 45.70510864 C133.828013 46.73420349 133.83003723 47.76329834 133.8321228 48.82357788 C133.82739456 50.24075104 133.82739456 50.24075104 133.8225708 51.68655396 C133.82177521 52.52196716 133.82097961 53.35738037 133.82015991 54.21810913 C133.69317627 56.12698364 133.69317627 56.12698364 132.69317627 57.12698364 C130.93655603 57.22548352 129.1759445 57.25330441 127.41656494 57.25396729 C125.70018326 57.25819702 125.70018326 57.25819702 123.9491272 57.26251221 C122.68259308 57.26048798 121.41605896 57.25846375 120.11114502 57.25637817 C118.77273511 57.25773221 117.43432557 57.25951215 116.09591675 57.26168823 C112.45138772 57.26626234 108.80688688 57.2644731 105.16235733 57.26130915 C101.3564674 57.25878543 97.55057996 57.26112312 93.74468994 57.26269531 C87.35218877 57.26451697 80.95969913 57.26211079 74.56719971 57.25735474 C67.16623224 57.25191212 59.76529232 57.25367478 52.36432552 57.25918114 C46.02124005 57.26371237 39.6781629 57.26436277 33.33507633 57.26174247 C29.54170848 57.26017975 25.7483536 57.25998579 21.95498657 57.26327896 C18.38950683 57.26615782 14.82406276 57.26418171 11.25858688 57.2583847 C9.31813354 57.2564216 7.3776772 57.25941089 5.43722534 57.26251221 C4.29297089 57.25969238 3.14871643 57.25687256 1.9697876 57.25396729 C0.96909744 57.25359026 -0.03159271 57.25321323 -1.06260681 57.25282478 C-3.30682373 57.12698364 -3.30682373 57.12698364 -4.30682373 56.12698364 C-4.46637079 54.45809481 -4.55843048 52.78269752 -4.62322998 51.10745239 C-4.66528564 50.03479126 -4.70734131 48.96213013 -4.75067139 47.85696411 C-4.78982666 46.68794556 -4.82898193 45.518927 -4.86932373 44.31448364 C-4.91105713 43.12226196 -4.95279053 41.93004028 -4.99578857 40.70169067 C-5.28561036 31.63440916 -5.41240076 22.57368699 -5.43182373 13.50198364 C-5.43641602 12.28148315 -5.4410083 11.06098267 -5.44573975 9.80349731 C-5.44372559 8.68048218 -5.44171143 7.55746704 -5.43963623 6.40042114 C-5.4385083 5.40445923 -5.43738037 4.40849731 -5.43621826 3.38235474 C-5.20925208 -0.57370858 -3.51555446 0.00163137 0 0 Z " fill="#677ABA" transform="translate(278.30682373046875,191.87301635742188)"/>
<path d="M0 0 C5.17949034 0.51087994 9.8051883 2.21842371 14.64453125 4.01953125 C15.45492355 4.31937424 16.26531586 4.61921722 17.1002655 4.92814636 C18.80326319 5.5614013 20.50509565 6.19779776 22.20581055 6.8371582 C24.81600676 7.81381212 27.43396054 8.76732915 30.05273438 9.72070312 C31.70886028 10.3397379 33.36447834 10.9601334 35.01953125 11.58203125 C35.80487747 11.86448196 36.59022369 12.14693268 37.39936829 12.4379425 C39.58520508 13.27661133 39.58520508 13.27661133 43 15 C44.38353185 18.59730609 43.69251971 20.55453206 42.25390625 24.07421875 C41.83713623 25.11263916 41.42036621 26.15105957 40.9909668 27.22094727 C40.51957275 28.36490967 40.04817871 29.50887207 39.5625 30.6875 C38.80708381 32.56306316 38.05173263 34.43865322 37.29823303 36.31498718 C36.75183643 37.67434331 36.20405257 39.0331425 35.65501404 40.39143372 C32.42846513 48.38053516 29.32094593 56.4155289 26.20333862 64.44760132 C16.11446417 90.41765592 6.00495416 116.40151967 -5 142 C-11.21732957 141.49268847 -16.47259774 140.43064162 -22.28125 138.19921875 C-23.02080933 137.92157181 -23.76036865 137.64392487 -24.52233887 137.35786438 C-26.06706893 136.77399052 -27.60975145 136.18467225 -29.15039062 135.59008789 C-31.5151941 134.68166328 -33.88950519 133.8021613 -36.265625 132.92382812 C-37.77148599 132.35067014 -39.27671927 131.77585961 -40.78125 131.19921875 C-41.49156372 130.93864182 -42.20187744 130.67806488 -42.93371582 130.40959167 C-44.90820312 129.6315918 -44.90820312 129.6315918 -48 128 C-49.31732967 124.86465471 -48.91623494 122.97006461 -47.69580078 119.87182617 C-47.22819588 118.66089798 -47.22819588 118.66089798 -46.75114441 117.42550659 C-46.40271988 116.5567691 -46.05429535 115.68803162 -45.6953125 114.79296875 C-45.34112747 113.88475372 -44.98694244 112.9765387 -44.62202454 112.040802 C-43.46670882 109.08551883 -42.29598455 106.1366055 -41.125 103.1875 C-40.32458472 101.14842971 -39.52518875 99.10895901 -38.72680664 97.0690918 C-36.81509007 92.19063215 -34.89222484 87.3166715 -32.965271 82.44421387 C-31.43012975 78.55700133 -29.91236119 74.66307782 -28.39526367 70.76879883 C-27.41588481 68.25706527 -26.43110394 65.7475045 -25.4453125 63.23828125 C-23.32766735 57.84306066 -21.22196823 52.44321689 -19.1171875 47.04296875 C-18.76586258 46.14177811 -18.41453766 45.24058746 -18.05256653 44.31208801 C-15.9127558 38.82322312 -15.9127558 38.82322312 -13.7741394 33.33389282 C-11.52268046 27.55333907 -9.26626077 21.77476817 -7 16 C-6.70075623 15.2373584 -6.40151245 14.4747168 -6.09320068 13.68896484 C-5.25681842 11.56216259 -4.41641068 9.43700735 -3.57421875 7.3125 C-3.09944092 6.11238281 -2.62466309 4.91226563 -2.13549805 3.67578125 C-1 1 -1 1 0 0 Z " fill="#ECD33D" transform="translate(115,202)"/>
<path d="M0 0 C20.59364533 -0.08021762 20.59364533 -0.08021762 29.35742188 -0.09765625 C35.34240251 -0.10962181 41.32732207 -0.12379224 47.31225586 -0.15087891 C52.13626462 -0.17257535 56.96020792 -0.18456188 61.7842617 -0.18975449 C63.62670103 -0.193456 65.4691367 -0.20068392 67.31154823 -0.21146011 C69.88787262 -0.22593254 72.46392485 -0.22797973 75.0402832 -0.22705078 C76.18827141 -0.23783661 76.18827141 -0.23783661 77.35945129 -0.24884033 C81.1240888 -0.23410689 82.78558507 -0.14294328 86 2 C86 14.21 86 26.42 86 39 C57.62 39 29.24 39 0 39 C0 26.13 0 13.26 0 0 Z " fill="#ECD33D" transform="translate(248,273)"/>
<path d="M0 0 C1.17175781 -0.00386719 2.34351563 -0.00773437 3.55078125 -0.01171875 C5.36642578 0.00568359 5.36642578 0.00568359 7.21875 0.0234375 C8.42917969 0.01183594 9.63960937 0.00023437 10.88671875 -0.01171875 C12.64435547 -0.00591797 12.64435547 -0.00591797 14.4375 0 C15.49904297 0.00338379 16.56058594 0.00676758 17.65429688 0.01025391 C21.99578019 0.5602028 25.37670271 2.10266771 28.53125 5.1484375 C31.80726744 11.35562843 30.96892022 19.63374843 31.03125 26.4609375 C31.06025391 27.52376953 31.08925781 28.58660156 31.11914062 29.68164062 C31.1682411 35.72855264 31.06164434 39.77440179 26.71875 44.3984375 C20.73350057 48.76219031 14.41197788 47.87440636 7.28125 47.8359375 C5.31575195 47.8659082 5.31575195 47.8659082 3.31054688 47.89648438 C2.04404297 47.89583984 0.77753906 47.89519531 -0.52734375 47.89453125 C-1.67904053 47.89638428 -2.8307373 47.8982373 -4.01733398 47.90014648 C-8.08383503 47.27506909 -10.15007421 46.05248701 -13.28125 43.3984375 C-17.39200141 37.07236636 -16.75987788 30.69676729 -16.71875 23.3984375 C-16.73873047 22.1403125 -16.75871094 20.8821875 -16.77929688 19.5859375 C-16.77385605 9.31365255 -16.77385605 9.31365255 -14.62890625 5.7109375 C-10.26164302 1.40907422 -6.05573947 0.01930336 0 0 Z " fill="#EDD33D" transform="translate(184.28125,334.6015625)"/>
<path d="M0 0 C14.78528689 0.02913357 14.78528689 0.02913357 19.90234375 1.1328125 C22.10029819 4.42974416 22.15122979 5.40391107 22.14526367 9.23095703 C22.1483403 10.26858185 22.15141693 11.30620667 22.15458679 12.37527466 C22.14740128 13.49409027 22.14021576 14.61290588 22.1328125 15.765625 C22.13212517 17.48699173 22.13212517 17.48699173 22.13142395 19.24313354 C22.12840183 21.66909825 22.12051677 24.09506101 22.1081543 26.52099609 C22.08988329 30.24974377 22.0876447 33.97824346 22.08789062 37.70703125 C22.0829761 40.059898 22.07714807 42.41276305 22.0703125 44.765625 C22.06919968 45.88848907 22.06808685 47.01135315 22.06694031 48.16824341 C22.06056046 49.1995639 22.0541806 50.2308844 22.04760742 51.29345703 C22.04188972 52.66221481 22.04188972 52.66221481 22.03605652 54.05862427 C21.90234375 56.1328125 21.90234375 56.1328125 20.90234375 57.1328125 C19.218493 57.23216026 17.53052778 57.263613 15.84375 57.265625 C14.81830078 57.26691406 13.79285156 57.26820313 12.73632812 57.26953125 C11.11694336 57.26373047 11.11694336 57.26373047 9.46484375 57.2578125 C8.38912109 57.26167969 7.31339844 57.26554687 6.20507812 57.26953125 C4.6649707 57.26759766 4.6649707 57.26759766 3.09375 57.265625 C2.14701416 57.26449707 1.20027832 57.26336914 0.22485352 57.26220703 C-2.09765625 57.1328125 -2.09765625 57.1328125 -4.09765625 56.1328125 C-4.12292188 48.31828498 -4.1404873 40.50376792 -4.15258789 32.68920898 C-4.15763008 30.02839769 -4.16446361 27.36758918 -4.1730957 24.70678711 C-4.18516634 20.89175734 -4.19088554 17.07676406 -4.1953125 13.26171875 C-4.20047379 12.06382217 -4.20563507 10.8659256 -4.21095276 9.63172913 C-4.21102829 8.5306633 -4.21110382 7.42959747 -4.21118164 6.29516602 C-4.21340225 5.32031754 -4.21562286 4.34546906 -4.21791077 3.34107971 C-4.02827152 -0.14131857 -3.56744617 0.15295482 0 0 Z " fill="#687AB9" transform="translate(221.09765625,191.8671875)"/>
<path d="M0 0 C4.49589857 0.73617053 8.66931459 2.20607555 12.9375 3.75 C14.45572032 4.29429552 15.97394962 4.83856597 17.4921875 5.3828125 C18.24854492 5.65512695 19.00490234 5.92744141 19.78417969 6.20800781 C21.83371071 6.94056385 23.88774558 7.65757323 25.9453125 8.3671875 C32.21523804 10.54744238 38.15600637 12.84424344 44 16 C43.48053489 21.62631926 41.93544322 25.89709576 39.4375 30.9375 C39.10814453 31.62134766 38.77878906 32.30519531 38.43945312 33.00976562 C37.63482961 34.67731871 36.8186103 36.33926839 36 38 C28.46270381 37.53007078 22.09641092 34.9720807 15.125 32.1875 C14.00480469 31.74857422 12.88460937 31.30964844 11.73046875 30.85742188 C8.4826683 29.58217701 5.24035902 28.29402309 2 27 C0.99420898 26.59861816 -0.01158203 26.19723633 -1.04785156 25.78369141 C-3.36587478 24.85738026 -5.68330506 23.92962709 -8 23 C-7.4080356 19.69465373 -6.60595035 16.69503815 -5.37109375 13.57421875 C-5.05849609 12.77822266 -4.74589844 11.98222656 -4.42382812 11.16210938 C-3.9355957 9.93717773 -3.9355957 9.93717773 -3.4375 8.6875 C-3.10814453 7.85154297 -2.77878906 7.01558594 -2.43945312 6.15429688 C-1.63001123 4.10136454 -0.81676543 2.05002714 0 0 Z " fill="#EBD23D" transform="translate(135,149)"/>
<path d="M0 0 C0.33 0 0.66 0 1 0 C1.02505615 1.07781738 1.0501123 2.15563477 1.07592773 3.26611328 C1.17136403 7.33292998 1.27122991 11.3996287 1.37231445 15.46630859 C1.41515624 17.21367601 1.45685717 18.96107184 1.49731445 20.70849609 C1.74044841 31.17226105 2.1575041 41.56437852 3 52 C-4.59 52 -12.18 52 -20 52 C-17.97604595 45.25348649 -15.87487814 38.83542119 -13.2421875 32.34375 C-12.7194072 31.04032654 -12.7194072 31.04032654 -12.18606567 29.71057129 C-11.08643745 26.97206075 -9.98072506 24.23605362 -8.875 21.5 C-8.12592161 19.63556949 -7.37722039 17.77098739 -6.62890625 15.90625 C-5.26632769 12.51670234 -3.90362012 9.12721349 -2.53466797 5.74023438 C-2.12521439 4.72624573 -2.12521439 4.72624573 -1.70748901 3.69177246 C-1.18438497 2.44090778 -0.60634978 1.21269956 0 0 Z " fill="#FDFDFD" transform="translate(156,268)"/>
<path d="M0 0 C1.32 0.33 2.64 0.66 4 1 C4 22.12 4 43.24 4 65 C2.68 65 1.36 65 0 65 C0 43.55 0 22.1 0 0 Z " fill="#303248" transform="translate(443,188)"/>
<path d="M0 0 C1.32 0 2.64 0 4 0 C4.77311649 11.21018904 5.1072704 22.38738847 5.125 33.625 C5.12951172 34.80932617 5.13402344 35.99365234 5.13867188 37.21386719 C5.12789282 43.56093505 4.84514592 49.70835812 4 56 C2.68 55.67 1.36 55.34 0 55 C0 36.85 0 18.7 0 0 Z " fill="#2E2749" transform="translate(222,331)"/>
<path d="M0 0 C1.32 0.33 2.64 0.66 4 1 C4.02542332 8.82876896 4.0428977 16.65752721 4.05493164 24.48632812 C4.05938363 27.14780621 4.06676643 29.80923013 4.07543945 32.47070312 C4.08761354 36.30339232 4.09325318 40.13604495 4.09765625 43.96875 C4.10281754 45.15239136 4.10797882 46.33603271 4.11329651 47.55554199 C4.11369517 53.46992896 3.90654741 59.15292606 3 65 C2.01 65 1.02 65 0 65 C0 43.55 0 22.1 0 0 Z " fill="#323448" transform="translate(251,188)"/>
<path d="M0 0 C1.32 0.33 2.64 0.66 4 1 C4.02542332 8.82876896 4.0428977 16.65752721 4.05493164 24.48632812 C4.05938363 27.14780621 4.06676643 29.80923013 4.07543945 32.47070312 C4.08761354 36.30339232 4.09325318 40.13604495 4.09765625 43.96875 C4.10281754 45.15239136 4.10797882 46.33603271 4.11329651 47.55554199 C4.11369517 53.46992896 3.90654741 59.15292606 3 65 C2.01 64.67 1.02 64.34 0 64 C0 42.88 0 21.76 0 0 Z " fill="#292C49" transform="translate(188,188)"/>
<path d="M0 0 C5.94812025 0.59382232 10.99970386 2.92937027 16.4375 5.25 C22.99890816 7.99970268 29.53254977 10.65032706 36.3125 12.8125 C41.74523248 14.54711968 46.84725513 16.55922612 52 19 C52 20.32 52 21.64 52 23 C44.23333056 21.59720948 37.10362984 18.9278351 29.79052734 16.05175781 C27.77093446 15.2582255 25.74724161 14.476006 23.72265625 13.6953125 C15.32625535 10.43473831 7.13232371 6.88062697 -1 3 C-0.67 2.01 -0.34 1.02 0 0 Z " fill="#232951" transform="translate(119,178)"/>
<path d="M0 0 C5.00867044 0.54663155 9.11680819 1.66480346 13.75 3.625 C20.50462325 6.4335285 27.3278848 8.9950633 34.21386719 11.46337891 C40.2820611 13.66254648 46.22396839 16.1119842 52 19 C52 19.99 52 20.98 52 22 C47.14488138 22.29291817 43.890276 21.40471419 39.4375 19.5 C38.11938306 18.94708392 36.8003134 18.39643542 35.48046875 17.84765625 C34.76810059 17.55004395 34.05573242 17.25243164 33.32177734 16.94580078 C28.99967251 15.18514525 24.61967548 13.57554661 20.25 11.9375 C13.03187278 9.21485037 5.94004808 6.38063232 -1 3 C-0.67 2.01 -0.34 1.02 0 0 Z " fill="#222850" transform="translate(142,120)"/>
<path d="M0 0 C5.46513321 1.2790009 10.63284548 2.84807568 15.8671875 4.86328125 C16.58681671 5.13714157 17.30644592 5.41100189 18.04788208 5.69316101 C19.55965053 6.26996263 21.0705374 6.84907978 22.58056641 7.43041992 C24.85960434 8.30658124 27.14241453 9.17230206 29.42578125 10.03710938 C37.15925628 12.98766626 44.70716888 16.05037157 52 20 C51.505 21.485 51.505 21.485 51 23 C45.15246658 22.40173751 40.22147738 20.16019546 34.875 17.875 C26.46662151 14.34215109 18.01443548 11.13748252 9.34716797 8.29638672 C5.41733996 6.98046878 2.13625832 5.83110887 -1 3 C-0.67 2.01 -0.34 1.02 0 0 Z " fill="#22284F" transform="translate(50,357)"/>
<path d="M0 0 C1.32 0 2.64 0 4 0 C4 18.15 4 36.3 4 55 C2.68 55 1.36 55 0 55 C0 36.85 0 18.7 0 0 Z " fill="#242549" transform="translate(393,331)"/>
<path d="M0 0 C0.99 0 1.98 0 3 0 C4.61775391 3.23550783 4.1417467 6.77819777 4.1328125 10.33203125 C4.13376923 11.16079269 4.13472595 11.98955414 4.13571167 12.84342957 C4.1363929 14.5994779 4.1345426 16.35552875 4.13037109 18.11157227 C4.12504228 20.79123657 4.13030749 23.4707317 4.13671875 26.15039062 C4.13605756 27.8567712 4.13477555 29.56315167 4.1328125 31.26953125 C4.13483673 32.06865433 4.13686096 32.8677774 4.13894653 33.69111633 C4.12262523 37.59495723 3.95924688 41.18730324 3 45 C1.68 44.67 0.36 44.34 -1 44 C-1.02464513 37.8944529 -1.04283371 31.78893449 -1.05493164 25.68334961 C-1.05997288 23.60456844 -1.06680574 21.52579084 -1.07543945 19.44702148 C-1.08751422 16.46597414 -1.09323024 13.48497351 -1.09765625 10.50390625 C-1.10539818 9.10078941 -1.10539818 9.10078941 -1.11329651 7.66932678 C-1.11337204 6.80850998 -1.11344757 5.94769318 -1.11352539 5.06079102 C-1.115746 4.29912125 -1.11796661 3.53745148 -1.12025452 2.75270081 C-1 1 -1 1 0 0 Z " fill="#283454" transform="translate(198,270)"/>
<path d="M0 0 C0.99 0 1.98 0 3 0 C3.76249869 9.38145712 4.1070164 18.71283455 4.125 28.125 C4.12951172 29.10799072 4.13402344 30.09098145 4.13867188 31.10375977 C4.128888 35.84853118 3.98951418 40.33514742 3 45 C1.68 45 0.36 45 -1 45 C-1.02527124 38.75204325 -1.04283344 32.50409959 -1.05493164 26.25610352 C-1.05997298 24.12881986 -1.06680591 22.00153969 -1.07543945 19.87426758 C-1.08751379 16.82372174 -1.09323014 13.77322155 -1.09765625 10.72265625 C-1.10281754 9.76537125 -1.10797882 8.80808624 -1.11329651 7.8217926 C-1.11337204 6.94095505 -1.11344757 6.06011749 -1.11352539 5.15258789 C-1.115746 4.37315323 -1.11796661 3.59371857 -1.12025452 2.79066467 C-1 1 -1 1 0 0 Z " fill="#263152" transform="translate(187,270)"/>
<path d="M0 0 C0.99 0 1.98 0 3 0 C3.62952725 9.93753735 4.1026944 19.85305007 4.125 29.8125 C4.12951172 30.64104492 4.13402344 31.46958984 4.13867188 32.32324219 C4.12800883 36.66132236 3.86666417 40.72858372 3 45 C1.68 44.67 0.36 44.34 -1 44 C-1.02467203 38.05517888 -1.04284663 32.1103874 -1.05493164 26.16552734 C-1.05996831 24.14208457 -1.06679789 22.11864544 -1.07543945 20.09521484 C-1.08753412 17.19107157 -1.09323488 14.28697631 -1.09765625 11.3828125 C-1.10281754 10.47443634 -1.10797882 9.56606018 -1.11329651 8.63015747 C-1.11337204 7.78943695 -1.11344757 6.94871643 -1.11352539 6.08251953 C-1.115746 5.34083527 -1.11796661 4.599151 -1.12025452 3.83499146 C-1 2 -1 2 0 0 Z " fill="#263052" transform="translate(432,270)"/>
<path d="M0 0 C1.98 0.495 1.98 0.495 4 1 C4 15.52 4 30.04 4 45 C2.68 45 1.36 45 0 45 C-1.71532847 5.1459854 -1.71532847 5.1459854 0 0 Z " fill="#252E50" transform="translate(341,270)"/>
<path d="M0 0 C0.99 0 1.98 0 3 0 C3 14.85 3 29.7 3 45 C1.68 45 0.36 45 -1 45 C-1.02527124 38.75204325 -1.04283344 32.50409959 -1.05493164 26.25610352 C-1.05997298 24.12881986 -1.06680591 22.00153969 -1.07543945 19.87426758 C-1.08751379 16.82372174 -1.09323014 13.77322155 -1.09765625 10.72265625 C-1.10281754 9.76537125 -1.10797882 8.80808624 -1.11329651 7.8217926 C-1.11337204 6.94095505 -1.11344757 6.06011749 -1.11352539 5.15258789 C-1.115746 4.37315323 -1.11796661 3.59371857 -1.12025452 2.79066467 C-1 1 -1 1 0 0 Z " fill="#22294D" transform="translate(421,270)"/>
<path d="M0 0 C1.32 0 2.64 0 4 0 C5.41260957 2.82521914 5.1297767 5.2071361 5.1328125 8.36328125 C5.13474609 10.28237305 5.13474609 10.28237305 5.13671875 12.24023438 C5.13462402 12.90885498 5.1325293 13.57747559 5.13037109 14.26635742 C5.12504808 16.29418519 5.1303055 18.32178875 5.13671875 20.34960938 C5.13542969 21.63287109 5.13414062 22.91613281 5.1328125 24.23828125 C5.13168457 25.41430908 5.13055664 26.59033691 5.12939453 27.80200195 C5.01373611 30.66051075 4.65737966 33.2226199 4 36 C2.68 35.67 1.36 35.34 0 35 C0 23.45 0 11.9 0 0 Z " fill="#342949" transform="translate(233,341)"/>
<path d="M0 0 C1.32 0 2.64 0 4 0 C4 13.53 4 27.06 4 41 C2.68 41 1.36 41 0 41 C0 27.47 0 13.94 0 0 Z " fill="#2A2D49" transform="translate(199,200)"/>
<path d="M0 0 C1.32 0 2.64 0 4 0 C4 11.55 4 23.1 4 35 C2.02 35.495 2.02 35.495 0 36 C-0.74313788 28.48899929 -1.10652059 21.04421963 -1.125 13.5 C-1.12951172 12.73510254 -1.13402344 11.97020508 -1.13867188 11.18212891 C-1.12847648 7.33081831 -0.9357094 3.74283761 0 0 Z " fill="#2E2749" transform="translate(382,341)"/>
<path d="M0 0 C1.32 0 2.64 0 4 0 C4.02484561 4.8563602 4.04292865 9.71268284 4.05493164 14.5690918 C4.05993919 16.21883794 4.06674716 17.8685797 4.07543945 19.51831055 C4.08766254 21.89893685 4.09326422 24.27950413 4.09765625 26.66015625 C4.10281754 27.38960953 4.10797882 28.11906281 4.11329651 28.87062073 C4.11377964 33.34941362 3.73285068 37.58007359 3 42 C2.01 41.67 1.02 41.34 0 41 C0 27.47 0 13.94 0 0 Z " fill="#2D3049" transform="translate(262,200)"/>
<path d="M0 0 C0.33 0 0.66 0 1 0 C0.99476318 0.74161377 0.98952637 1.48322754 0.98413086 2.24731445 C0.96336386 5.60236771 0.9503407 8.95740744 0.9375 12.3125 C0.92912109 13.47974609 0.92074219 14.64699219 0.91210938 15.84960938 C0.90888672 16.96787109 0.90566406 18.08613281 0.90234375 19.23828125 C0.89710693 20.26993408 0.89187012 21.30158691 0.88647461 22.36450195 C0.88365 25.10946274 0.88365 25.10946274 2 28 C1.39671875 28.04898437 0.7934375 28.09796875 0.171875 28.1484375 C-0.62734375 28.22320312 -1.4265625 28.29796875 -2.25 28.375 C-3.03890625 28.44460938 -3.8278125 28.51421875 -4.640625 28.5859375 C-7.085877 29.01507113 -8.84836903 29.78600638 -11 31 C-10.3339303 27.0577597 -9.16360451 23.54698373 -7.71484375 19.82421875 C-7.26689453 18.66728516 -6.81894531 17.51035156 -6.35742188 16.31835938 C-5.88884766 15.12017578 -5.42027344 13.92199219 -4.9375 12.6875 C-4.46505859 11.46998047 -3.99261719 10.25246094 -3.50585938 8.99804688 C-2.34085239 5.9972713 -1.17211211 2.99800584 0 0 Z " fill="#FAFAFB" transform="translate(170,233)"/>
<path d="M0 0 C10.85641169 3.49613258 21.42903496 7.72866198 32 12 C32 13.32 32 14.64 32 16 C25.81759312 15.4448451 20.648319 13.49072903 14.9375 11.125 C14.06544922 10.77308594 13.19339844 10.42117187 12.29492188 10.05859375 C7.76068331 8.211947 3.3399953 6.26620444 -1 4 C-0.67 2.68 -0.34 1.36 0 0 Z " fill="#232950" transform="translate(148,133)"/>
<path d="M0 0 C5.37835249 0.96154987 10.22851848 2.85766831 15.3125 4.8125 C16.22451172 5.15603516 17.13652344 5.49957031 18.07617188 5.85351562 C23.56316689 7.94998039 28.79194801 10.28302094 34 13 C33.67 13.99 33.34 14.98 33 16 C28.13888219 15.37348947 23.79355011 13.95673253 19.25 12.1875 C18.54987793 11.91832764 17.84975586 11.64915527 17.12841797 11.37182617 C15.73084261 10.83329466 14.33416948 10.29241497 12.93847656 9.74902344 C11.23329987 9.0901466 9.51959044 8.45344292 7.8046875 7.8203125 C6.92039062 7.48773438 6.03609375 7.15515625 5.125 6.8125 C4.36445312 6.53019531 3.60390625 6.24789063 2.8203125 5.95703125 C1 5 1 5 -1 2 C-0.67 1.34 -0.34 0.68 0 0 Z " fill="#222850" transform="translate(63,350)"/>
<path d="M0 0 C4.3951496 0.71135369 8.42261309 2.16436389 12.5625 3.75 C13.60954102 4.14662842 13.60954102 4.14662842 14.67773438 4.55126953 C20.84117309 6.90266362 26.93529643 9.40412309 33 12 C32.67 13.32 32.34 14.64 32 16 C20.77129215 12.78097751 8.90772556 9.3236809 -1 3 C-0.67 2.01 -0.34 1.02 0 0 Z " fill="#222850" transform="translate(125,192)"/>
<path d="M0 0 C0.99 0 1.98 0 3 0 C4.75161913 37.49676173 4.75161913 37.49676173 3 41 C2.01 41 1.02 41 0 41 C0 27.47 0 13.94 0 0 Z " fill="#252949" transform="translate(432,200)"/>
<path d="M0 0 C1.32 0.33 2.64 0.66 4 1 C4.02891949 5.29165262 4.04677118 9.58328036 4.0625 13.875 C4.07087891 15.09832031 4.07925781 16.32164062 4.08789062 17.58203125 C4.09111328 18.74863281 4.09433594 19.91523438 4.09765625 21.1171875 C4.10289307 22.19597168 4.10812988 23.27475586 4.11352539 24.38623047 C4 27 4 27 3 29 C2.01 29 1.02 29 0 29 C0 19.43 0 9.86 0 0 Z " fill="#20274C" transform="translate(352,278)"/>
</svg>
