<?xml version="1.0" encoding="UTF-8"?><svg xmlns="http://www.w3.org/2000/svg" xmlns:xlink="http://www.w3.org/1999/xlink"  zoomAndPan="magnify" width="107.000000pt" height="auto" viewBox="0 0 107.000000 107.000000" preserveAspectRatio="xMidYMid meet" version="1.0"><defs><clipPath id="clip-0"><path d="M 0 0 L 247 0 L 247 247 L 0 247 Z M 0 0 " clip-rule="nonzero"/></clipPath><clipPath id="clip-1"><path d="M 0 59.878906 L 0 3.992188 C 0 3.730469 0.0273438 3.46875 0.078125 3.214844 C 0.128906 2.957031 0.203125 2.707031 0.304688 2.464844 C 0.402344 2.222656 0.527344 1.992188 0.671875 1.773438 C 0.820312 1.554688 0.984375 1.355469 1.167969 1.167969 C 1.355469 0.984375 1.554688 0.820312 1.773438 0.671875 C 1.992188 0.527344 2.222656 0.402344 2.464844 0.304688 C 2.707031 0.203125 2.957031 0.128906 3.214844 0.078125 C 3.46875 0.0273438 3.730469 0 3.992188 0 L 59.878906 0 C 60.140625 0 60.402344 0.0273438 60.65625 0.078125 C 60.914062 0.128906 61.164062 0.203125 61.40625 0.304688 C 61.648438 0.402344 61.878906 0.527344 62.097656 0.671875 C 62.316406 0.820312 62.515625 0.984375 62.703125 1.167969 C 62.886719 1.355469 63.050781 1.554688 63.199219 1.773438 C 63.34375 1.992188 63.464844 2.222656 63.566406 2.464844 C 63.667969 2.707031 63.742188 2.957031 63.792969 3.214844 C 63.84375 3.46875 63.871094 3.730469 63.871094 3.992188 C 63.871094 4.253906 63.84375 4.511719 63.792969 4.769531 C 63.742188 5.027344 63.667969 5.277344 63.566406 5.519531 C 63.464844 5.761719 63.34375 5.992188 63.199219 6.210938 C 63.050781 6.425781 62.886719 6.628906 62.703125 6.816406 C 62.515625 7 62.316406 7.164062 62.097656 7.3125 C 61.878906 7.457031 61.648438 7.578125 61.40625 7.679688 C 61.164062 7.78125 60.914062 7.855469 60.65625 7.90625 C 60.402344 7.957031 60.140625 7.984375 59.878906 7.984375 L 7.984375 7.984375 L 7.984375 59.878906 C 7.984375 60.140625 7.957031 60.402344 7.90625 60.65625 C 7.855469 60.914062 7.78125 61.164062 7.679688 61.40625 C 7.578125 61.648438 7.457031 61.878906 7.3125 62.097656 C 7.164062 62.316406 7 62.515625 6.816406 62.703125 C 6.628906 62.886719 6.425781 63.050781 6.210938 63.199219 C 5.992188 63.34375 5.761719 63.464844 5.519531 63.566406 C 5.277344 63.667969 5.027344 63.742188 4.769531 63.792969 C 4.511719 63.84375 4.253906 63.871094 3.992188 63.871094 C 3.730469 63.871094 3.46875 63.84375 3.214844 63.792969 C 2.957031 63.742188 2.707031 63.667969 2.464844 63.566406 C 2.222656 63.464844 1.992188 63.34375 1.773438 63.199219 C 1.554688 63.050781 1.355469 62.886719 1.167969 62.703125 C 0.984375 62.515625 0.820312 62.316406 0.671875 62.097656 C 0.527344 61.878906 0.402344 61.648438 0.304688 61.40625 C 0.203125 61.164062 0.128906 60.914062 0.078125 60.65625 C 0.0273438 60.402344 0 60.140625 0 59.878906 Z M 243.507812 0 L 187.621094 0 C 187.359375 0 187.097656 0.0273438 186.84375 0.078125 C 186.585938 0.128906 186.335938 0.203125 186.09375 0.304688 C 185.851562 0.402344 185.621094 0.527344 185.402344 0.671875 C 185.183594 0.820312 184.984375 0.984375 184.796875 1.167969 C 184.613281 1.355469 184.449219 1.554688 184.300781 1.773438 C 184.15625 1.992188 184.03125 2.222656 183.933594 2.464844 C 183.832031 2.707031 183.757812 2.957031 183.707031 3.214844 C 183.65625 3.46875 183.628906 3.730469 183.628906 3.992188 C 183.628906 4.253906 183.65625 4.511719 183.707031 4.769531 C 183.757812 5.027344 183.832031 5.277344 183.933594 5.519531 C 184.03125 5.761719 184.15625 5.992188 184.300781 6.210938 C 184.449219 6.425781 184.613281 6.628906 184.796875 6.816406 C 184.984375 7 185.183594 7.164062 185.402344 7.3125 C 185.621094 7.457031 185.851562 7.578125 186.09375 7.679688 C 186.335938 7.78125 186.585938 7.855469 186.84375 7.90625 C 187.097656 7.957031 187.359375 7.984375 187.621094 7.984375 L 239.515625 7.984375 L 239.515625 59.878906 C 239.515625 60.140625 239.542969 60.402344 239.59375 60.65625 C 239.644531 60.914062 239.71875 61.164062 239.820312 61.40625 C 239.921875 61.648438 240.042969 61.878906 240.1875 62.097656 C 240.335938 62.316406 240.5 62.515625 240.683594 62.703125 C 240.871094 62.886719 241.074219 63.050781 241.289062 63.199219 C 241.507812 63.34375 241.738281 63.464844 241.980469 63.566406 C 242.222656 63.667969 242.472656 63.742188 242.730469 63.792969 C 242.988281 63.84375 243.246094 63.871094 243.507812 63.871094 C 243.769531 63.871094 244.03125 63.84375 244.285156 63.792969 C 244.542969 63.742188 244.792969 63.667969 245.035156 63.566406 C 245.277344 63.464844 245.507812 63.34375 245.726562 63.199219 C 245.945312 63.050781 246.144531 62.886719 246.332031 62.703125 C 246.515625 62.515625 246.679688 62.316406 246.828125 62.097656 C 246.972656 61.878906 247.097656 61.648438 247.195312 61.40625 C 247.296875 61.164062 247.371094 60.914062 247.421875 60.65625 C 247.472656 60.402344 247.5 60.140625 247.5 59.878906 L 247.5 3.992188 C 247.5 3.730469 247.472656 3.46875 247.421875 3.214844 C 247.371094 2.957031 247.296875 2.707031 247.195312 2.464844 C 247.097656 2.222656 246.972656 1.992188 246.828125 1.773438 C 246.679688 1.554688 246.515625 1.355469 246.332031 1.167969 C 246.144531 0.984375 245.945312 0.820312 245.726562 0.671875 C 245.507812 0.527344 245.277344 0.402344 245.035156 0.304688 C 244.792969 0.203125 244.542969 0.128906 244.285156 0.078125 C 244.03125 0.0273438 243.769531 0 243.507812 0 Z M 59.878906 239.515625 L 7.984375 239.515625 L 7.984375 187.621094 C 7.984375 187.359375 7.957031 187.097656 7.90625 186.84375 C 7.855469 186.585938 7.78125 186.335938 7.679688 186.09375 C 7.578125 185.851562 7.457031 185.621094 7.3125 185.402344 C 7.164062 185.183594 7 184.984375 6.816406 184.796875 C 6.628906 184.613281 6.425781 184.449219 6.210938 184.300781 C 5.992188 184.15625 5.761719 184.03125 5.519531 183.933594 C 5.277344 183.832031 5.027344 183.757812 4.769531 183.707031 C 4.511719 183.65625 4.253906 183.628906 3.992188 183.628906 C 3.730469 183.628906 3.46875 183.65625 3.214844 183.707031 C 2.957031 183.757812 2.707031 183.832031 2.464844 183.933594 C 2.222656 184.03125 1.992188 184.15625 1.773438 184.300781 C 1.554688 184.449219 1.355469 184.613281 1.167969 184.796875 C 0.984375 184.984375 0.820312 185.183594 0.671875 185.402344 C 0.527344 185.621094 0.402344 185.851562 0.304688 186.09375 C 0.203125 186.335938 0.128906 186.585938 0.078125 186.84375 C 0.0273438 187.097656 0 187.359375 0 187.621094 L 0 243.507812 C 0 243.769531 0.0273438 244.03125 0.078125 244.285156 C 0.128906 244.542969 0.203125 244.792969 0.304688 245.035156 C 0.402344 245.277344 0.527344 245.507812 0.671875 245.726562 C 0.820312 245.945312 0.984375 246.144531 1.167969 246.332031 C 1.355469 246.515625 1.554688 246.679688 1.773438 246.828125 C 1.992188 246.972656 2.222656 247.097656 2.464844 247.195312 C 2.707031 247.296875 2.957031 247.371094 3.214844 247.421875 C 3.46875 247.472656 3.730469 247.5 3.992188 247.5 L 59.878906 247.5 C 60.140625 247.5 60.402344 247.472656 60.65625 247.421875 C 60.914062 247.371094 61.164062 247.296875 61.40625 247.195312 C 61.648438 247.097656 61.878906 246.972656 62.097656 246.828125 C 62.316406 246.679688 62.515625 246.515625 62.703125 246.332031 C 62.886719 246.144531 63.050781 245.945312 63.199219 245.726562 C 63.34375 245.507812 63.464844 245.277344 63.566406 245.035156 C 63.667969 244.792969 63.742188 244.542969 63.792969 244.285156 C 63.84375 244.03125 63.871094 243.769531 63.871094 243.507812 C 63.871094 243.246094 63.84375 242.988281 63.792969 242.730469 C 63.742188 242.472656 63.667969 242.222656 63.566406 241.980469 C 63.464844 241.738281 63.34375 241.507812 63.199219 241.289062 C 63.050781 241.074219 62.886719 240.871094 62.703125 240.683594 C 62.515625 240.5 62.316406 240.335938 62.097656 240.1875 C 61.878906 240.042969 61.648438 239.921875 61.40625 239.820312 C 61.164062 239.71875 60.914062 239.644531 60.65625 239.59375 C 60.402344 239.542969 60.140625 239.515625 59.878906 239.515625 Z M 243.507812 183.628906 C 243.246094 183.628906 242.988281 183.65625 242.730469 183.707031 C 242.472656 183.757812 242.222656 183.832031 241.980469 183.933594 C 241.738281 184.035156 241.507812 184.15625 241.289062 184.300781 C 241.074219 184.449219 240.871094 184.613281 240.683594 184.796875 C 240.5 184.984375 240.335938 185.183594 240.1875 185.402344 C 240.042969 185.621094 239.921875 185.851562 239.820312 186.09375 C 239.71875 186.335938 239.644531 186.585938 239.59375 186.84375 C 239.542969 187.097656 239.515625 187.359375 239.515625 187.621094 L 239.515625 239.515625 L 187.621094 239.515625 C 187.359375 239.515625 187.097656 239.542969 186.84375 239.59375 C 186.585938 239.644531 186.335938 239.71875 186.09375 239.820312 C 185.851562 239.921875 185.621094 240.042969 185.402344 240.1875 C 185.183594 240.335938 184.984375 240.5 184.796875 240.683594 C 184.613281 240.871094 184.449219 241.074219 184.300781 241.289062 C 184.15625 241.507812 184.03125 241.738281 183.933594 241.980469 C 183.832031 242.222656 183.757812 242.472656 183.707031 242.730469 C 183.65625 242.988281 183.628906 243.246094 183.628906 243.507812 C 183.628906 243.769531 183.65625 244.03125 183.707031 244.285156 C 183.757812 244.542969 183.832031 244.792969 183.933594 245.035156 C 184.03125 245.277344 184.15625 245.507812 184.300781 245.726562 C 184.449219 245.945312 184.613281 246.144531 184.796875 246.332031 C 184.984375 246.515625 185.183594 246.679688 185.402344 246.828125 C 185.621094 246.972656 185.851562 247.097656 186.09375 247.195312 C 186.335938 247.296875 186.585938 247.371094 186.84375 247.421875 C 187.097656 247.472656 187.359375 247.5 187.621094 247.5 L 243.507812 247.5 C 243.769531 247.5 244.03125 247.472656 244.285156 247.421875 C 244.542969 247.371094 244.792969 247.296875 245.035156 247.195312 C 245.277344 247.097656 245.507812 246.972656 245.726562 246.828125 C 245.945312 246.679688 246.144531 246.515625 246.332031 246.332031 C 246.515625 246.144531 246.679688 245.945312 246.828125 245.726562 C 246.972656 245.507812 247.097656 245.277344 247.195312 245.035156 C 247.296875 244.792969 247.371094 244.542969 247.421875 244.285156 C 247.472656 244.03125 247.5 243.769531 247.5 243.507812 L 247.5 187.621094 C 247.5 187.359375 247.472656 187.097656 247.421875 186.84375 C 247.371094 186.585938 247.296875 186.335938 247.195312 186.09375 C 247.097656 185.851562 246.972656 185.621094 246.828125 185.402344 C 246.679688 185.183594 246.515625 184.984375 246.332031 184.796875 C 246.144531 184.613281 245.945312 184.449219 245.726562 184.300781 C 245.507812 184.15625 245.277344 184.03125 245.035156 183.933594 C 244.792969 183.832031 244.542969 183.757812 244.285156 183.707031 C 244.03125 183.65625 243.769531 183.628906 243.507812 183.628906 Z M 247.5 123.75 C 247.5 124.011719 247.472656 124.273438 247.421875 124.527344 C 247.371094 124.785156 247.296875 125.035156 247.195312 125.277344 C 247.097656 125.519531 246.972656 125.75 246.828125 125.96875 C 246.679688 126.1875 246.515625 126.386719 246.332031 126.574219 C 246.144531 126.757812 245.945312 126.921875 245.726562 127.070312 C 245.507812 127.214844 245.277344 127.335938 245.035156 127.4375 C 244.792969 127.539062 244.542969 127.613281 244.285156 127.664062 C 244.03125 127.714844 243.769531 127.742188 243.507812 127.742188 L 167.460938 127.742188 C 167.339844 129.089844 167.15625 130.429688 166.90625 131.761719 C 166.660156 133.09375 166.355469 134.410156 165.984375 135.714844 C 165.617188 137.019531 165.1875 138.300781 164.699219 139.566406 C 164.214844 140.828125 163.667969 142.066406 163.066406 143.28125 C 162.464844 144.492188 161.808594 145.675781 161.097656 146.828125 C 160.382812 147.980469 159.621094 149.097656 158.804688 150.179688 C 157.992188 151.261719 157.128906 152.304688 156.214844 153.304688 C 155.304688 154.308594 154.347656 155.265625 153.347656 156.179688 C 152.347656 157.089844 151.308594 157.957031 150.230469 158.773438 C 149.148438 159.589844 148.03125 160.355469 146.882812 161.070312 C 145.730469 161.785156 144.550781 162.441406 143.335938 163.046875 C 142.125 163.652344 140.886719 164.199219 139.625 164.6875 C 138.363281 165.179688 137.078125 165.609375 135.777344 165.980469 C 134.476562 166.351562 133.15625 166.660156 131.828125 166.910156 C 130.496094 167.160156 129.15625 167.347656 127.808594 167.472656 C 126.457031 167.597656 125.105469 167.660156 123.753906 167.660156 C 122.398438 167.660156 121.046875 167.597656 119.699219 167.472656 C 118.347656 167.347656 117.007812 167.160156 115.679688 166.910156 C 114.347656 166.660156 113.03125 166.351562 111.726562 165.980469 C 110.425781 165.609375 109.140625 165.179688 107.878906 164.6875 C 106.617188 164.199219 105.378906 163.652344 104.167969 163.046875 C 102.957031 162.441406 101.773438 161.785156 100.621094 161.070312 C 99.472656 160.355469 98.355469 159.589844 97.277344 158.773438 C 96.195312 157.957031 95.15625 157.089844 94.15625 156.179688 C 93.15625 155.265625 92.199219 154.308594 91.289062 153.304688 C 90.378906 152.304688 89.515625 151.261719 88.699219 150.179688 C 87.882812 149.097656 87.121094 147.980469 86.410156 146.828125 C 85.699219 145.675781 85.039062 144.492188 84.4375 143.28125 C 83.835938 142.066406 83.292969 140.828125 82.804688 139.566406 C 82.316406 138.300781 81.890625 137.019531 81.519531 135.714844 C 81.152344 134.410156 80.84375 133.09375 80.597656 131.761719 C 80.351562 130.429688 80.164062 129.089844 80.042969 127.742188 L 3.992188 127.742188 C 3.730469 127.742188 3.46875 127.714844 3.214844 127.664062 C 2.957031 127.613281 2.707031 127.539062 2.464844 127.4375 C 2.222656 127.335938 1.992188 127.214844 1.773438 127.070312 C 1.554688 126.921875 1.355469 126.757812 1.167969 126.574219 C 0.984375 126.386719 0.820312 126.1875 0.671875 125.96875 C 0.527344 125.75 0.402344 125.519531 0.304688 125.277344 C 0.203125 125.035156 0.128906 124.785156 0.078125 124.527344 C 0.0273438 124.273438 0 124.011719 0 123.75 C 0 123.488281 0.0273438 123.226562 0.078125 122.972656 C 0.128906 122.714844 0.203125 122.464844 0.304688 122.222656 C 0.402344 121.980469 0.527344 121.75 0.671875 121.53125 C 0.820312 121.3125 0.984375 121.113281 1.167969 120.925781 C 1.355469 120.742188 1.554688 120.578125 1.773438 120.429688 C 1.992188 120.285156 2.222656 120.164062 2.464844 120.0625 C 2.707031 119.960938 2.957031 119.886719 3.214844 119.835938 C 3.46875 119.785156 3.730469 119.757812 3.992188 119.757812 L 80.039062 119.757812 C 80.164062 118.410156 80.347656 117.070312 80.59375 115.738281 C 80.839844 114.40625 81.148438 113.089844 81.519531 111.785156 C 81.886719 110.480469 82.3125 109.199219 82.800781 107.933594 C 83.289062 106.671875 83.832031 105.433594 84.4375 104.21875 C 85.039062 103.007812 85.695312 101.824219 86.40625 100.671875 C 87.117188 99.519531 87.882812 98.402344 88.695312 97.320312 C 89.511719 96.238281 90.375 95.195312 91.285156 94.195312 C 92.199219 93.191406 93.152344 92.234375 94.152344 91.320312 C 95.152344 90.410156 96.195312 89.542969 97.273438 88.726562 C 98.355469 87.910156 99.46875 87.144531 100.621094 86.429688 C 101.773438 85.714844 102.953125 85.058594 104.164062 84.453125 C 105.378906 83.847656 106.613281 83.300781 107.878906 82.8125 C 109.140625 82.320312 110.421875 81.890625 111.726562 81.519531 C 113.027344 81.148438 114.34375 80.839844 115.675781 80.589844 C 117.007812 80.339844 118.347656 80.152344 119.695312 80.027344 C 121.042969 79.902344 122.394531 79.839844 123.75 79.839844 C 125.105469 79.839844 126.457031 79.902344 127.804688 80.027344 C 129.152344 80.152344 130.492188 80.339844 131.824219 80.589844 C 133.15625 80.839844 134.472656 81.148438 135.773438 81.519531 C 137.078125 81.890625 138.359375 82.320312 139.621094 82.8125 C 140.886719 83.300781 142.121094 83.847656 143.335938 84.453125 C 144.546875 85.058594 145.726562 85.714844 146.878906 86.429688 C 148.03125 87.144531 149.144531 87.910156 150.226562 88.726562 C 151.304688 89.542969 152.347656 90.410156 153.347656 91.320312 C 154.347656 92.234375 155.300781 93.191406 156.214844 94.195312 C 157.125 95.195312 157.988281 96.238281 158.804688 97.320312 C 159.617188 98.402344 160.382812 99.519531 161.09375 100.671875 C 161.804688 101.824219 162.460938 103.007812 163.0625 104.21875 C 163.667969 105.433594 164.210938 106.671875 164.699219 107.933594 C 165.1875 109.199219 165.613281 110.480469 165.980469 111.785156 C 166.351562 113.089844 166.660156 114.40625 166.90625 115.738281 C 167.152344 117.070312 167.335938 118.410156 167.460938 119.757812 L 243.507812 119.757812 C 243.769531 119.757812 244.03125 119.785156 244.285156 119.835938 C 244.542969 119.886719 244.792969 119.960938 245.035156 120.0625 C 245.277344 120.164062 245.507812 120.285156 245.726562 120.429688 C 245.945312 120.578125 246.144531 120.742188 246.332031 120.925781 C 246.515625 121.113281 246.679688 121.3125 246.828125 121.53125 C 246.972656 121.75 247.097656 121.980469 247.195312 122.222656 C 247.296875 122.464844 247.371094 122.714844 247.421875 122.972656 C 247.472656 123.226562 247.5 123.488281 247.5 123.75 Z M 88.058594 119.757812 L 159.441406 119.757812 C 159.320312 118.671875 159.152344 117.59375 158.929688 116.523438 C 158.710938 115.453125 158.445312 114.394531 158.128906 113.347656 C 157.8125 112.300781 157.449219 111.273438 157.039062 110.257812 C 156.628906 109.246094 156.171875 108.253906 155.671875 107.28125 C 155.171875 106.308594 154.625 105.363281 154.039062 104.441406 C 153.453125 103.519531 152.824219 102.625 152.15625 101.761719 C 151.488281 100.898438 150.78125 100.066406 150.035156 99.265625 C 149.289062 98.464844 148.511719 97.703125 147.695312 96.972656 C 146.882812 96.242188 146.035156 95.554688 145.160156 94.902344 C 144.28125 94.25 143.375 93.640625 142.441406 93.070312 C 141.507812 92.503906 140.550781 91.976562 139.570312 91.496094 C 138.589844 91.015625 137.589844 90.578125 136.566406 90.1875 C 135.546875 89.796875 134.507812 89.457031 133.457031 89.160156 C 132.40625 88.863281 131.339844 88.617188 130.265625 88.417969 C 129.191406 88.222656 128.109375 88.074219 127.023438 87.972656 C 125.933594 87.875 124.84375 87.824219 123.75 87.824219 C 122.65625 87.824219 121.566406 87.875 120.476562 87.972656 C 119.390625 88.074219 118.308594 88.222656 117.234375 88.417969 C 116.160156 88.617188 115.09375 88.863281 114.042969 89.160156 C 112.992188 89.457031 111.953125 89.796875 110.933594 90.1875 C 109.910156 90.578125 108.910156 91.015625 107.929688 91.496094 C 106.949219 91.976562 105.992188 92.503906 105.058594 93.070312 C 104.125 93.640625 103.21875 94.25 102.339844 94.902344 C 101.464844 95.554688 100.617188 96.242188 99.804688 96.972656 C 98.988281 97.703125 98.210938 98.464844 97.464844 99.265625 C 96.71875 100.066406 96.011719 100.898438 95.34375 101.761719 C 94.675781 102.625 94.046875 103.519531 93.460938 104.441406 C 92.875 105.363281 92.328125 106.308594 91.828125 107.28125 C 91.328125 108.253906 90.871094 109.246094 90.460938 110.257812 C 90.050781 111.273438 89.6875 112.300781 89.371094 113.347656 C 89.054688 114.394531 88.789062 115.453125 88.570312 116.523438 C 88.347656 117.59375 88.179688 118.671875 88.058594 119.757812 Z M 159.441406 127.742188 L 88.058594 127.742188 C 88.179688 128.828125 88.347656 129.90625 88.570312 130.976562 C 88.789062 132.046875 89.054688 133.105469 89.371094 134.152344 C 89.6875 135.199219 90.050781 136.226562 90.460938 137.242188 C 90.871094 138.253906 91.328125 139.246094 91.828125 140.21875 C 92.328125 141.191406 92.875 142.136719 93.460938 143.058594 C 94.046875 143.980469 94.675781 144.875 95.34375 145.738281 C 96.011719 146.601562 96.71875 147.433594 97.464844 148.234375 C 98.210938 149.035156 98.988281 149.796875 99.804688 150.527344 C 100.617188 151.257812 101.464844 151.945312 102.339844 152.597656 C 103.21875 153.25 104.125 153.859375 105.058594 154.429688 C 105.992188 154.996094 106.949219 155.523438 107.929688 156.003906 C 108.910156 156.484375 109.910156 156.921875 110.933594 157.3125 C 111.953125 157.703125 112.992188 158.042969 114.042969 158.339844 C 115.09375 158.636719 116.160156 158.882812 117.234375 159.082031 C 118.308594 159.277344 119.390625 159.425781 120.476562 159.527344 C 121.566406 159.625 122.65625 159.675781 123.75 159.675781 C 124.84375 159.675781 125.933594 159.625 127.023438 159.527344 C 128.109375 159.425781 129.191406 159.277344 130.265625 159.082031 C 131.339844 158.882812 132.40625 158.636719 133.457031 158.339844 C 134.507812 158.042969 135.546875 157.703125 136.566406 157.3125 C 137.589844 156.921875 138.589844 156.484375 139.570312 156.003906 C 140.550781 155.523438 141.507812 154.996094 142.441406 154.429688 C 143.375 153.859375 144.28125 153.25 145.160156 152.597656 C 146.035156 151.945312 146.882812 151.257812 147.695312 150.527344 C 148.511719 149.796875 149.289062 149.035156 150.035156 148.234375 C 150.78125 147.433594 151.488281 146.601562 152.15625 145.738281 C 152.824219 144.875 153.453125 143.980469 154.039062 143.058594 C 154.625 142.136719 155.171875 141.191406 155.671875 140.21875 C 156.171875 139.246094 156.628906 138.253906 157.039062 137.242188 C 157.449219 136.226562 157.8125 135.199219 158.128906 134.152344 C 158.445312 133.105469 158.710938 132.046875 158.929688 130.976562 C 159.152344 129.90625 159.320312 128.828125 159.441406 127.742188 Z M 31.277344 109.054688 C 31.097656 109.246094 30.941406 109.453125 30.804688 109.675781 C 30.664062 109.898438 30.550781 110.132812 30.460938 110.378906 C 30.367188 110.625 30.300781 110.875 30.261719 111.132812 C 30.21875 111.394531 30.203125 111.652344 30.210938 111.914062 C 30.222656 112.175781 30.253906 112.433594 30.316406 112.691406 C 30.375 112.945312 30.460938 113.191406 30.570312 113.429688 C 30.679688 113.667969 30.808594 113.894531 30.960938 114.105469 C 31.117188 114.320312 31.289062 114.515625 31.480469 114.691406 C 31.671875 114.871094 31.878906 115.03125 32.101562 115.167969 C 32.324219 115.304688 32.558594 115.421875 32.804688 115.511719 C 33.050781 115.601562 33.300781 115.671875 33.5625 115.710938 C 33.820312 115.753906 34.078125 115.769531 34.339844 115.761719 C 34.601562 115.753906 34.863281 115.71875 35.117188 115.65625 C 35.371094 115.597656 35.617188 115.511719 35.855469 115.40625 C 36.09375 115.296875 36.320312 115.164062 36.535156 115.011719 C 36.746094 114.859375 36.941406 114.6875 37.121094 114.496094 C 53.34375 97.082031 86.164062 67.863281 123.75 67.863281 C 161.335938 67.863281 194.160156 97.082031 210.378906 114.496094 C 210.558594 114.6875 210.753906 114.859375 210.964844 115.011719 C 211.179688 115.167969 211.40625 115.296875 211.644531 115.40625 C 211.882812 115.515625 212.128906 115.601562 212.382812 115.660156 C 212.640625 115.71875 212.898438 115.753906 213.160156 115.765625 C 213.421875 115.773438 213.683594 115.757812 213.941406 115.714844 C 214.199219 115.671875 214.453125 115.605469 214.695312 115.515625 C 214.941406 115.421875 215.175781 115.308594 215.398438 115.171875 C 215.621094 115.03125 215.832031 114.875 216.023438 114.695312 C 216.214844 114.515625 216.386719 114.320312 216.539062 114.109375 C 216.691406 113.894531 216.824219 113.671875 216.933594 113.433594 C 217.042969 113.195312 217.125 112.945312 217.1875 112.691406 C 217.246094 112.4375 217.28125 112.179688 217.292969 111.917969 C 217.300781 111.652344 217.285156 111.394531 217.242188 111.136719 C 217.199219 110.875 217.132812 110.625 217.042969 110.378906 C 216.949219 110.132812 216.835938 109.898438 216.699219 109.675781 C 216.558594 109.453125 216.402344 109.246094 216.222656 109.054688 C 199.117188 90.6875 164.359375 59.878906 123.75 59.878906 C 83.140625 59.878906 48.382812 90.6875 31.277344 109.054688 Z M 216.222656 138.445312 C 216.402344 138.253906 216.558594 138.046875 216.699219 137.824219 C 216.835938 137.601562 216.949219 137.367188 217.042969 137.121094 C 217.132812 136.875 217.199219 136.625 217.242188 136.363281 C 217.285156 136.105469 217.300781 135.847656 217.292969 135.582031 C 217.28125 135.320312 217.246094 135.0625 217.1875 134.808594 C 217.125 134.554688 217.042969 134.304688 216.933594 134.066406 C 216.824219 133.828125 216.691406 133.605469 216.539062 133.390625 C 216.386719 133.179688 216.214844 132.984375 216.023438 132.804688 C 215.832031 132.625 215.621094 132.46875 215.398438 132.328125 C 215.175781 132.191406 214.941406 132.078125 214.695312 131.984375 C 214.453125 131.894531 214.199219 131.828125 213.941406 131.785156 C 213.683594 131.742188 213.421875 131.726562 213.160156 131.734375 C 212.898438 131.746094 212.640625 131.78125 212.382812 131.839844 C 212.128906 131.898438 211.882812 131.984375 211.644531 132.09375 C 211.40625 132.203125 211.179688 132.332031 210.964844 132.488281 C 210.753906 132.640625 210.558594 132.8125 210.378906 133.003906 C 194.160156 150.417969 161.335938 179.636719 123.75 179.636719 C 86.164062 179.636719 53.34375 150.417969 37.121094 133.003906 C 36.941406 132.8125 36.746094 132.640625 36.535156 132.488281 C 36.320312 132.335938 36.09375 132.203125 35.855469 132.09375 C 35.617188 131.988281 35.371094 131.902344 35.117188 131.84375 C 34.863281 131.78125 34.601562 131.746094 34.339844 131.738281 C 34.078125 131.730469 33.820312 131.746094 33.5625 131.789062 C 33.300781 131.828125 33.050781 131.898438 32.804688 131.988281 C 32.558594 132.078125 32.324219 132.195312 32.101562 132.332031 C 31.878906 132.46875 31.671875 132.628906 31.480469 132.808594 C 31.289062 132.984375 31.117188 133.179688 30.960938 133.394531 C 30.808594 133.605469 30.679688 133.832031 30.570312 134.070312 C 30.460938 134.308594 30.375 134.554688 30.316406 134.808594 C 30.253906 135.066406 30.222656 135.324219 30.210938 135.585938 C 30.203125 135.847656 30.21875 136.105469 30.261719 136.367188 C 30.300781 136.625 30.367188 136.875 30.460938 137.121094 C 30.550781 137.367188 30.664062 137.601562 30.804688 137.824219 C 30.941406 138.046875 31.097656 138.253906 31.277344 138.445312 C 48.382812 156.8125 83.140625 187.621094 123.75 187.621094 C 164.359375 187.621094 199.117188 156.8125 216.222656 138.445312 Z M 216.222656 138.445312 " clip-rule="nonzero"/></clipPath><linearGradient x1="0" gradientTransform="matrix(0.498992, 0, 0, 0.498992, 0.00000115, 0)" xmlns:xlink="http://www.w3.org/1999/xlink" y1="248" x2="495.00003" gradientUnits="userSpaceOnUse" y2="248" xlink:type="simple" xlink:actuate="onLoad" id="linear-pattern-0" xlink:show="other"><stop stop-opacity="1" stop-color="rgb(34.899902%, 90.19928%, 80.39856%)" offset="0"/><stop stop-opacity="1" stop-color="rgb(35.072327%, 90.200806%, 80.325317%)" offset="0.0078125"/><stop stop-opacity="1" stop-color="rgb(35.417175%, 90.203857%, 80.178833%)" offset="0.015625"/><stop stop-opacity="1" stop-color="rgb(35.762024%, 90.206909%, 80.032349%)" offset="0.0234375"/><stop stop-opacity="1" stop-color="rgb(36.108398%, 90.209961%, 79.885864%)" offset="0.03125"/><stop stop-opacity="1" stop-color="rgb(36.453247%, 90.213013%, 79.73938%)" offset="0.0390625"/><stop stop-opacity="1" stop-color="rgb(36.798096%, 90.216064%, 79.592896%)" offset="0.046875"/><stop stop-opacity="1" stop-color="rgb(37.14447%, 90.219116%, 79.446411%)" offset="0.0546875"/><stop stop-opacity="1" stop-color="rgb(37.489319%, 90.222168%, 79.299927%)" offset="0.0625"/><stop stop-opacity="1" stop-color="rgb(37.834167%, 90.22522%, 79.153442%)" offset="0.0703125"/><stop stop-opacity="1" stop-color="rgb(38.180542%, 90.228271%, 79.006958%)" offset="0.078125"/><stop stop-opacity="1" stop-color="rgb(38.525391%, 90.231323%, 78.860474%)" offset="0.0859375"/><stop stop-opacity="1" stop-color="rgb(38.871765%, 90.234375%, 78.713989%)" offset="0.09375"/><stop stop-opacity="1" stop-color="rgb(39.216614%, 90.237427%, 78.567505%)" offset="0.101562"/><stop stop-opacity="1" stop-color="rgb(39.561462%, 90.242004%, 78.421021%)" offset="0.109375"/><stop stop-opacity="1" stop-color="rgb(39.907837%, 90.245056%, 78.274536%)" offset="0.117188"/><stop stop-opacity="1" stop-color="rgb(40.252686%, 90.248108%, 78.126526%)" offset="0.125"/><stop stop-opacity="1" stop-color="rgb(40.597534%, 90.25116%, 77.980042%)" offset="0.132812"/><stop stop-opacity="1" stop-color="rgb(40.943909%, 90.254211%, 77.833557%)" offset="0.140625"/><stop stop-opacity="1" stop-color="rgb(41.288757%, 90.257263%, 77.687073%)" offset="0.148438"/><stop stop-opacity="1" stop-color="rgb(41.633606%, 90.260315%, 77.540588%)" offset="0.15625"/><stop stop-opacity="1" stop-color="rgb(41.97998%, 90.263367%, 77.394104%)" offset="0.164062"/><stop stop-opacity="1" stop-color="rgb(42.324829%, 90.266418%, 77.24762%)" offset="0.171875"/><stop stop-opacity="1" stop-color="rgb(42.669678%, 90.26947%, 77.101135%)" offset="0.179688"/><stop stop-opacity="1" stop-color="rgb(43.016052%, 90.272522%, 76.954651%)" offset="0.1875"/><stop stop-opacity="1" stop-color="rgb(43.360901%, 90.275574%, 76.808167%)" offset="0.195313"/><stop stop-opacity="1" stop-color="rgb(43.707275%, 90.278625%, 76.661682%)" offset="0.203125"/><stop stop-opacity="1" stop-color="rgb(44.052124%, 90.281677%, 76.515198%)" offset="0.210937"/><stop stop-opacity="1" stop-color="rgb(44.396973%, 90.284729%, 76.368713%)" offset="0.21875"/><stop stop-opacity="1" stop-color="rgb(44.743347%, 90.287781%, 76.222229%)" offset="0.226562"/><stop stop-opacity="1" stop-color="rgb(45.088196%, 90.290833%, 76.075745%)" offset="0.234375"/><stop stop-opacity="1" stop-color="rgb(45.433044%, 90.293884%, 75.92926%)" offset="0.242188"/><stop stop-opacity="1" stop-color="rgb(45.779419%, 90.296936%, 75.78125%)" offset="0.25"/><stop stop-opacity="1" stop-color="rgb(46.124268%, 90.299988%, 75.634766%)" offset="0.257812"/><stop stop-opacity="1" stop-color="rgb(46.469116%, 90.30304%, 75.488281%)" offset="0.265625"/><stop stop-opacity="1" stop-color="rgb(46.815491%, 90.306091%, 75.341797%)" offset="0.273438"/><stop stop-opacity="1" stop-color="rgb(47.160339%, 90.310669%, 75.195312%)" offset="0.28125"/><stop stop-opacity="1" stop-color="rgb(47.505188%, 90.313721%, 75.048828%)" offset="0.289062"/><stop stop-opacity="1" stop-color="rgb(47.851562%, 90.316772%, 74.902344%)" offset="0.296875"/><stop stop-opacity="1" stop-color="rgb(48.196411%, 90.319824%, 74.755859%)" offset="0.304688"/><stop stop-opacity="1" stop-color="rgb(48.542786%, 90.322876%, 74.609375%)" offset="0.3125"/><stop stop-opacity="1" stop-color="rgb(48.887634%, 90.325928%, 74.462891%)" offset="0.320312"/><stop stop-opacity="1" stop-color="rgb(49.232483%, 90.328979%, 74.316406%)" offset="0.328125"/><stop stop-opacity="1" stop-color="rgb(49.578857%, 90.332031%, 74.169922%)" offset="0.335937"/><stop stop-opacity="1" stop-color="rgb(49.923706%, 90.335083%, 74.023438%)" offset="0.34375"/><stop stop-opacity="1" stop-color="rgb(50.268555%, 90.338135%, 73.876953%)" offset="0.351562"/><stop stop-opacity="1" stop-color="rgb(50.614929%, 90.341187%, 73.730469%)" offset="0.359375"/><stop stop-opacity="1" stop-color="rgb(50.959778%, 90.344238%, 73.583984%)" offset="0.367188"/><stop stop-opacity="1" stop-color="rgb(51.304626%, 90.34729%, 73.435974%)" offset="0.375"/><stop stop-opacity="1" stop-color="rgb(51.651001%, 90.350342%, 73.28949%)" offset="0.382812"/><stop stop-opacity="1" stop-color="rgb(51.99585%, 90.353394%, 73.143005%)" offset="0.390625"/><stop stop-opacity="1" stop-color="rgb(52.342224%, 90.356445%, 72.996521%)" offset="0.398438"/><stop stop-opacity="1" stop-color="rgb(52.687073%, 90.359497%, 72.850037%)" offset="0.40625"/><stop stop-opacity="1" stop-color="rgb(53.031921%, 90.362549%, 72.703552%)" offset="0.414062"/><stop stop-opacity="1" stop-color="rgb(53.378296%, 90.365601%, 72.557068%)" offset="0.421875"/><stop stop-opacity="1" stop-color="rgb(53.723145%, 90.368652%, 72.410583%)" offset="0.429687"/><stop stop-opacity="1" stop-color="rgb(54.067993%, 90.371704%, 72.264099%)" offset="0.4375"/><stop stop-opacity="1" stop-color="rgb(54.414368%, 90.374756%, 72.117615%)" offset="0.445312"/><stop stop-opacity="1" stop-color="rgb(54.759216%, 90.377808%, 71.97113%)" offset="0.453125"/><stop stop-opacity="1" stop-color="rgb(55.104065%, 90.382385%, 71.824646%)" offset="0.460938"/><stop stop-opacity="1" stop-color="rgb(55.450439%, 90.385437%, 71.678162%)" offset="0.46875"/><stop stop-opacity="1" stop-color="rgb(55.795288%, 90.388489%, 71.531677%)" offset="0.476562"/><stop stop-opacity="1" stop-color="rgb(56.140137%, 90.391541%, 71.385193%)" offset="0.484375"/><stop stop-opacity="1" stop-color="rgb(56.486511%, 90.394592%, 71.238708%)" offset="0.492188"/><stop stop-opacity="1" stop-color="rgb(56.83136%, 90.397644%, 71.090698%)" offset="0.5"/><stop stop-opacity="1" stop-color="rgb(57.177734%, 90.400696%, 70.944214%)" offset="0.507812"/><stop stop-opacity="1" stop-color="rgb(57.522583%, 90.403748%, 70.797729%)" offset="0.515625"/><stop stop-opacity="1" stop-color="rgb(57.867432%, 90.406799%, 70.651245%)" offset="0.523438"/><stop stop-opacity="1" stop-color="rgb(58.213806%, 90.409851%, 70.504761%)" offset="0.53125"/><stop stop-opacity="1" stop-color="rgb(58.558655%, 90.412903%, 70.358276%)" offset="0.539062"/><stop stop-opacity="1" stop-color="rgb(58.903503%, 90.415955%, 70.211792%)" offset="0.546875"/><stop stop-opacity="1" stop-color="rgb(59.249878%, 90.419006%, 70.065308%)" offset="0.554688"/><stop stop-opacity="1" stop-color="rgb(59.594727%, 90.422058%, 69.918823%)" offset="0.5625"/><stop stop-opacity="1" stop-color="rgb(59.939575%, 90.42511%, 69.772339%)" offset="0.570312"/><stop stop-opacity="1" stop-color="rgb(60.28595%, 90.428162%, 69.625854%)" offset="0.578125"/><stop stop-opacity="1" stop-color="rgb(60.630798%, 90.431213%, 69.47937%)" offset="0.585938"/><stop stop-opacity="1" stop-color="rgb(60.975647%, 90.434265%, 69.332886%)" offset="0.59375"/><stop stop-opacity="1" stop-color="rgb(61.322021%, 90.437317%, 69.186401%)" offset="0.601562"/><stop stop-opacity="1" stop-color="rgb(61.66687%, 90.440369%, 69.039917%)" offset="0.609375"/><stop stop-opacity="1" stop-color="rgb(62.013245%, 90.44342%, 68.893433%)" offset="0.617187"/><stop stop-opacity="1" stop-color="rgb(62.358093%, 90.446472%, 68.745422%)" offset="0.625"/><stop stop-opacity="1" stop-color="rgb(62.702942%, 90.449524%, 68.598938%)" offset="0.632812"/><stop stop-opacity="1" stop-color="rgb(63.049316%, 90.454102%, 68.452454%)" offset="0.640625"/><stop stop-opacity="1" stop-color="rgb(63.394165%, 90.457153%, 68.305969%)" offset="0.648438"/><stop stop-opacity="1" stop-color="rgb(63.739014%, 90.460205%, 68.159485%)" offset="0.65625"/><stop stop-opacity="1" stop-color="rgb(64.085388%, 90.463257%, 68.013%)" offset="0.664062"/><stop stop-opacity="1" stop-color="rgb(64.430237%, 90.466309%, 67.866516%)" offset="0.671875"/><stop stop-opacity="1" stop-color="rgb(64.775085%, 90.46936%, 67.720032%)" offset="0.679688"/><stop stop-opacity="1" stop-color="rgb(65.12146%, 90.472412%, 67.573547%)" offset="0.6875"/><stop stop-opacity="1" stop-color="rgb(65.466309%, 90.475464%, 67.427063%)" offset="0.695312"/><stop stop-opacity="1" stop-color="rgb(65.811157%, 90.478516%, 67.280579%)" offset="0.703125"/><stop stop-opacity="1" stop-color="rgb(66.157532%, 90.481567%, 67.134094%)" offset="0.710938"/><stop stop-opacity="1" stop-color="rgb(66.50238%, 90.484619%, 66.98761%)" offset="0.71875"/><stop stop-opacity="1" stop-color="rgb(66.848755%, 90.487671%, 66.841125%)" offset="0.726562"/><stop stop-opacity="1" stop-color="rgb(67.193604%, 90.490723%, 66.694641%)" offset="0.734375"/><stop stop-opacity="1" stop-color="rgb(67.538452%, 90.493774%, 66.548157%)" offset="0.742188"/><stop stop-opacity="1" stop-color="rgb(67.884827%, 90.496826%, 66.400146%)" offset="0.75"/><stop stop-opacity="1" stop-color="rgb(68.229675%, 90.499878%, 66.253662%)" offset="0.757812"/><stop stop-opacity="1" stop-color="rgb(68.574524%, 90.50293%, 66.107178%)" offset="0.765625"/><stop stop-opacity="1" stop-color="rgb(68.920898%, 90.505981%, 65.960693%)" offset="0.773438"/><stop stop-opacity="1" stop-color="rgb(69.265747%, 90.509033%, 65.814209%)" offset="0.78125"/><stop stop-opacity="1" stop-color="rgb(69.610596%, 90.512085%, 65.667725%)" offset="0.789062"/><stop stop-opacity="1" stop-color="rgb(69.95697%, 90.515137%, 65.52124%)" offset="0.796875"/><stop stop-opacity="1" stop-color="rgb(70.301819%, 90.518188%, 65.374756%)" offset="0.804687"/><stop stop-opacity="1" stop-color="rgb(70.648193%, 90.52124%, 65.228271%)" offset="0.8125"/><stop stop-opacity="1" stop-color="rgb(70.993042%, 90.525818%, 65.081787%)" offset="0.820313"/><stop stop-opacity="1" stop-color="rgb(71.337891%, 90.52887%, 64.935303%)" offset="0.828125"/><stop stop-opacity="1" stop-color="rgb(71.684265%, 90.531921%, 64.788818%)" offset="0.835938"/><stop stop-opacity="1" stop-color="rgb(72.029114%, 90.534973%, 64.642334%)" offset="0.84375"/><stop stop-opacity="1" stop-color="rgb(72.373962%, 90.538025%, 64.49585%)" offset="0.851562"/><stop stop-opacity="1" stop-color="rgb(72.720337%, 90.541077%, 64.349365%)" offset="0.859375"/><stop stop-opacity="1" stop-color="rgb(73.065186%, 90.544128%, 64.202881%)" offset="0.867188"/><stop stop-opacity="1" stop-color="rgb(73.410034%, 90.54718%, 64.056396%)" offset="0.875"/><stop stop-opacity="1" stop-color="rgb(73.756409%, 90.550232%, 63.908386%)" offset="0.882812"/><stop stop-opacity="1" stop-color="rgb(74.101257%, 90.553284%, 63.761902%)" offset="0.890625"/><stop stop-opacity="1" stop-color="rgb(74.446106%, 90.556335%, 63.615417%)" offset="0.898438"/><stop stop-opacity="1" stop-color="rgb(74.79248%, 90.559387%, 63.468933%)" offset="0.90625"/><stop stop-opacity="1" stop-color="rgb(75.137329%, 90.562439%, 63.322449%)" offset="0.914062"/><stop stop-opacity="1" stop-color="rgb(75.483704%, 90.565491%, 63.175964%)" offset="0.921875"/><stop stop-opacity="1" stop-color="rgb(75.828552%, 90.568542%, 63.02948%)" offset="0.929688"/><stop stop-opacity="1" stop-color="rgb(76.173401%, 90.571594%, 62.882996%)" offset="0.9375"/><stop stop-opacity="1" stop-color="rgb(76.519775%, 90.574646%, 62.736511%)" offset="0.945312"/><stop stop-opacity="1" stop-color="rgb(76.864624%, 90.577698%, 62.590027%)" offset="0.953125"/><stop stop-opacity="1" stop-color="rgb(77.209473%, 90.58075%, 62.443542%)" offset="0.960938"/><stop stop-opacity="1" stop-color="rgb(77.555847%, 90.583801%, 62.297058%)" offset="0.96875"/><stop stop-opacity="1" stop-color="rgb(77.900696%, 90.586853%, 62.150574%)" offset="0.976562"/><stop stop-opacity="1" stop-color="rgb(78.245544%, 90.589905%, 62.004089%)" offset="0.984375"/><stop stop-opacity="1" stop-color="rgb(78.591919%, 90.592957%, 61.857605%)" offset="0.992187"/><stop stop-opacity="1" stop-color="rgb(78.936768%, 90.597534%, 61.711121%)" offset="1"/></linearGradient></defs><g clip-path="url(#clip-0)"><g clip-path="url(#clip-1)"><path fill="url(#linear-pattern-0)" d="M 0 0 L 0 247 L 247 247 L 247 0 Z M 0 0 " fill-rule="nonzero"/></g></g></svg>